M48
; DRILL file {KiCad (5.1.9)-1} date 05/06/21 18:48:09
; FORMAT={-:-/ absolute / inch / decimal}
; #@! TF.CreationDate,2021-05-06T18:48:09-07:00
; #@! TF.GenerationSoftware,Kicad,Pcbnew,(5.1.9)-1
; #@! TF.FileFunction,Plated,1,2,PTH
FMAT,2
INCH
T1C0.0157
T2C0.0236
T3C0.0579
%
G90
G05
T1
X7.8688Y-3.1937
X7.9062Y-3.3981
X7.9062Y-3.4375
X7.9688Y-2.9688
X7.9953Y-3.2141
X8.0Y-3.3981
X8.0Y-3.4375
X8.0874Y-3.8686
X8.125Y-2.8844
X8.125Y-2.9375
X8.125Y-3.0
X8.1562Y-3.1875
X8.1585Y-2.8844
X8.1585Y-2.9375
X8.1919Y-2.8844
X8.1919Y-2.9375
X8.2188Y-3.0312
X8.2254Y-2.8844
X8.2254Y-2.9375
X8.25Y-3.9062
X8.2589Y-2.8844
X8.2589Y-2.9375
X8.2791Y-3.0003
X8.2923Y-2.8844
X8.2923Y-2.9375
X8.3258Y-2.8844
X8.3258Y-2.9375
X8.3438Y-3.25
X8.3438Y-3.9062
X8.3438Y-4.125
X8.3593Y-2.8844
X8.3593Y-2.9375
X8.3695Y-3.0
X8.4897Y-3.3215
X8.4897Y-3.6978
X8.5312Y-3.5186
X8.5312Y-3.5759
X8.5625Y-3.3125
X8.5625Y-3.75
X8.625Y-2.9375
X8.625Y-3.1875
X8.625Y-3.5625
X8.6516Y-3.4016
X8.6875Y-3.5312
T3
X4.9935Y-2.9874
X4.9935Y-3.7374
X5.045Y-2.9299
X5.045Y-3.6799
X5.2419Y-2.9102
X5.2419Y-3.6602
X5.2435Y-2.8874
X5.2435Y-3.6374
X5.7435Y-2.9874
X5.7435Y-3.7374
X5.795Y-2.9299
X5.795Y-3.6799
X5.9919Y-2.9102
X5.9919Y-3.6602
X5.9935Y-2.8874
X5.9935Y-3.6374
X6.4935Y-2.9874
X6.4935Y-3.7374
X6.545Y-2.9299
X6.545Y-3.6799
X6.7419Y-2.9102
X6.7419Y-3.6602
X6.7435Y-2.8874
X6.7435Y-3.6374
X7.2435Y-2.9874
X7.2435Y-3.7374
X7.295Y-2.9299
X7.295Y-3.6799
X7.4919Y-2.9102
X7.4919Y-3.6602
X7.4935Y-2.8874
X7.4935Y-3.6374
T2
G00X8.0719Y-2.7501
M15
G01X8.0719Y-2.7816
M16
G05
G00X8.0719Y-2.8694
M15
G01X8.0719Y-2.9284
M16
G05
G00X8.4124Y-2.7501
M15
G01X8.4124Y-2.7816
M16
G05
G00X8.4124Y-2.8694
M15
G01X8.4124Y-2.9284
M16
G05
T0
M30
