G04 #@! TF.GenerationSoftware,KiCad,Pcbnew,(5.1.9)-1*
G04 #@! TF.CreationDate,2021-05-06T18:48:07-07:00*
G04 #@! TF.ProjectId,PCB,5043422e-6b69-4636-9164-5f7063625858,rev?*
G04 #@! TF.SameCoordinates,Original*
G04 #@! TF.FileFunction,Soldermask,Bot*
G04 #@! TF.FilePolarity,Negative*
%FSLAX46Y46*%
G04 Gerber Fmt 4.6, Leading zero omitted, Abs format (unit mm)*
G04 Created by KiCad (PCBNEW (5.1.9)-1) date 2021-05-06 18:48:07*
%MOMM*%
%LPD*%
G01*
G04 APERTURE LIST*
%ADD10R,0.550000X1.600000*%
%ADD11R,1.600000X0.550000*%
%ADD12C,0.700000*%
%ADD13O,0.900000X2.400000*%
%ADD14O,0.900000X1.700000*%
%ADD15C,2.200000*%
%ADD16R,1.400000X1.200000*%
%ADD17R,1.100000X1.800000*%
%ADD18C,2.250000*%
%ADD19C,3.987800*%
%ADD20C,1.750000*%
%ADD21R,1.200000X0.900000*%
G04 APERTURE END LIST*
G36*
G01*
X218731250Y-93343750D02*
X218731250Y-92393750D01*
G75*
G02*
X218981250Y-92143750I250000J0D01*
G01*
X219481250Y-92143750D01*
G75*
G02*
X219731250Y-92393750I0J-250000D01*
G01*
X219731250Y-93343750D01*
G75*
G02*
X219481250Y-93593750I-250000J0D01*
G01*
X218981250Y-93593750D01*
G75*
G02*
X218731250Y-93343750I0J250000D01*
G01*
G37*
G36*
G01*
X216831250Y-93343750D02*
X216831250Y-92393750D01*
G75*
G02*
X217081250Y-92143750I250000J0D01*
G01*
X217581250Y-92143750D01*
G75*
G02*
X217831250Y-92393750I0J-250000D01*
G01*
X217831250Y-93343750D01*
G75*
G02*
X217581250Y-93593750I-250000J0D01*
G01*
X217081250Y-93593750D01*
G75*
G02*
X216831250Y-93343750I0J250000D01*
G01*
G37*
G36*
G01*
X206825000Y-97312500D02*
X206825000Y-96362500D01*
G75*
G02*
X207075000Y-96112500I250000J0D01*
G01*
X207575000Y-96112500D01*
G75*
G02*
X207825000Y-96362500I0J-250000D01*
G01*
X207825000Y-97312500D01*
G75*
G02*
X207575000Y-97562500I-250000J0D01*
G01*
X207075000Y-97562500D01*
G75*
G02*
X206825000Y-97312500I0J250000D01*
G01*
G37*
G36*
G01*
X204925000Y-97312500D02*
X204925000Y-96362500D01*
G75*
G02*
X205175000Y-96112500I250000J0D01*
G01*
X205675000Y-96112500D01*
G75*
G02*
X205925000Y-96362500I0J-250000D01*
G01*
X205925000Y-97312500D01*
G75*
G02*
X205675000Y-97562500I-250000J0D01*
G01*
X205175000Y-97562500D01*
G75*
G02*
X204925000Y-97312500I0J250000D01*
G01*
G37*
D10*
X212350000Y-93150000D03*
X211550000Y-93150000D03*
X210750000Y-93150000D03*
X209950000Y-93150000D03*
X209150000Y-93150000D03*
X208350000Y-93150000D03*
X207550000Y-93150000D03*
X206750000Y-93150000D03*
D11*
X205300000Y-91700000D03*
X205300000Y-90900000D03*
X205300000Y-90100000D03*
X205300000Y-89300000D03*
X205300000Y-88500000D03*
X205300000Y-87700000D03*
X205300000Y-86900000D03*
X205300000Y-86100000D03*
D10*
X206750000Y-84650000D03*
X207550000Y-84650000D03*
X208350000Y-84650000D03*
X209150000Y-84650000D03*
X209950000Y-84650000D03*
X210750000Y-84650000D03*
X211550000Y-84650000D03*
X212350000Y-84650000D03*
D11*
X213800000Y-86100000D03*
X213800000Y-86900000D03*
X213800000Y-87700000D03*
X213800000Y-88500000D03*
X213800000Y-89300000D03*
X213800000Y-90100000D03*
X213800000Y-90900000D03*
X213800000Y-91700000D03*
D12*
X206375000Y-74612500D03*
X207225000Y-74612500D03*
X208075000Y-74612500D03*
X208925000Y-74612500D03*
X209775000Y-74612500D03*
X210625000Y-74612500D03*
X211475000Y-74612500D03*
X212325000Y-74612500D03*
X207225000Y-73262500D03*
X208925000Y-73262500D03*
X208075000Y-73262500D03*
X206375000Y-73262500D03*
X210625000Y-73262500D03*
X211475000Y-73262500D03*
X212325000Y-73262500D03*
X209775000Y-73262500D03*
D13*
X205025000Y-73632500D03*
X213675000Y-73632500D03*
D14*
X205025000Y-70252500D03*
X213675000Y-70252500D03*
D15*
X159543750Y-106362500D03*
X178593750Y-69850000D03*
X139700000Y-69850000D03*
G36*
G01*
X205418750Y-76543748D02*
X205418750Y-77443752D01*
G75*
G02*
X205168752Y-77693750I-249998J0D01*
G01*
X204643748Y-77693750D01*
G75*
G02*
X204393750Y-77443752I0J249998D01*
G01*
X204393750Y-76543748D01*
G75*
G02*
X204643748Y-76293750I249998J0D01*
G01*
X205168752Y-76293750D01*
G75*
G02*
X205418750Y-76543748I0J-249998D01*
G01*
G37*
G36*
G01*
X203593750Y-76543748D02*
X203593750Y-77443752D01*
G75*
G02*
X203343752Y-77693750I-249998J0D01*
G01*
X202818748Y-77693750D01*
G75*
G02*
X202568750Y-77443752I0J249998D01*
G01*
X202568750Y-76543748D01*
G75*
G02*
X202818748Y-76293750I249998J0D01*
G01*
X203343752Y-76293750D01*
G75*
G02*
X203593750Y-76543748I0J-249998D01*
G01*
G37*
G36*
G01*
X209099998Y-77950000D02*
X210000002Y-77950000D01*
G75*
G02*
X210250000Y-78199998I0J-249998D01*
G01*
X210250000Y-78725002D01*
G75*
G02*
X210000002Y-78975000I-249998J0D01*
G01*
X209099998Y-78975000D01*
G75*
G02*
X208850000Y-78725002I0J249998D01*
G01*
X208850000Y-78199998D01*
G75*
G02*
X209099998Y-77950000I249998J0D01*
G01*
G37*
G36*
G01*
X209099998Y-79775000D02*
X210000002Y-79775000D01*
G75*
G02*
X210250000Y-80024998I0J-249998D01*
G01*
X210250000Y-80550002D01*
G75*
G02*
X210000002Y-80800000I-249998J0D01*
G01*
X209099998Y-80800000D01*
G75*
G02*
X208850000Y-80550002I0J249998D01*
G01*
X208850000Y-80024998D01*
G75*
G02*
X209099998Y-79775000I249998J0D01*
G01*
G37*
G36*
G01*
X201443750Y-77012500D02*
X200193750Y-77012500D01*
G75*
G02*
X199943750Y-76762500I0J250000D01*
G01*
X199943750Y-76012500D01*
G75*
G02*
X200193750Y-75762500I250000J0D01*
G01*
X201443750Y-75762500D01*
G75*
G02*
X201693750Y-76012500I0J-250000D01*
G01*
X201693750Y-76762500D01*
G75*
G02*
X201443750Y-77012500I-250000J0D01*
G01*
G37*
G36*
G01*
X201443750Y-79812500D02*
X200193750Y-79812500D01*
G75*
G02*
X199943750Y-79562500I0J250000D01*
G01*
X199943750Y-78812500D01*
G75*
G02*
X200193750Y-78562500I250000J0D01*
G01*
X201443750Y-78562500D01*
G75*
G02*
X201693750Y-78812500I0J-250000D01*
G01*
X201693750Y-79562500D01*
G75*
G02*
X201443750Y-79812500I-250000J0D01*
G01*
G37*
D16*
X206337500Y-105456250D03*
X204137500Y-105456250D03*
X204137500Y-103756250D03*
X206337500Y-103756250D03*
D17*
X219337500Y-103112500D03*
X215637500Y-96912500D03*
X215637500Y-103112500D03*
X219337500Y-96912500D03*
G36*
G01*
X201162498Y-81125000D02*
X202062502Y-81125000D01*
G75*
G02*
X202312500Y-81374998I0J-249998D01*
G01*
X202312500Y-81900002D01*
G75*
G02*
X202062502Y-82150000I-249998J0D01*
G01*
X201162498Y-82150000D01*
G75*
G02*
X200912500Y-81900002I0J249998D01*
G01*
X200912500Y-81374998D01*
G75*
G02*
X201162498Y-81125000I249998J0D01*
G01*
G37*
G36*
G01*
X201162498Y-82950000D02*
X202062502Y-82950000D01*
G75*
G02*
X202312500Y-83199998I0J-249998D01*
G01*
X202312500Y-83725002D01*
G75*
G02*
X202062502Y-83975000I-249998J0D01*
G01*
X201162498Y-83975000D01*
G75*
G02*
X200912500Y-83725002I0J249998D01*
G01*
X200912500Y-83199998D01*
G75*
G02*
X201162498Y-82950000I249998J0D01*
G01*
G37*
G36*
G01*
X213968752Y-98818750D02*
X213068748Y-98818750D01*
G75*
G02*
X212818750Y-98568752I0J249998D01*
G01*
X212818750Y-98043748D01*
G75*
G02*
X213068748Y-97793750I249998J0D01*
G01*
X213968752Y-97793750D01*
G75*
G02*
X214218750Y-98043748I0J-249998D01*
G01*
X214218750Y-98568752D01*
G75*
G02*
X213968752Y-98818750I-249998J0D01*
G01*
G37*
G36*
G01*
X213968752Y-100643750D02*
X213068748Y-100643750D01*
G75*
G02*
X212818750Y-100393752I0J249998D01*
G01*
X212818750Y-99868748D01*
G75*
G02*
X213068748Y-99618750I249998J0D01*
G01*
X213968752Y-99618750D01*
G75*
G02*
X214218750Y-99868748I0J-249998D01*
G01*
X214218750Y-100393752D01*
G75*
G02*
X213968752Y-100643750I-249998J0D01*
G01*
G37*
G36*
G01*
X216293750Y-74956248D02*
X216293750Y-75856252D01*
G75*
G02*
X216043752Y-76106250I-249998J0D01*
G01*
X215518748Y-76106250D01*
G75*
G02*
X215268750Y-75856252I0J249998D01*
G01*
X215268750Y-74956248D01*
G75*
G02*
X215518748Y-74706250I249998J0D01*
G01*
X216043752Y-74706250D01*
G75*
G02*
X216293750Y-74956248I0J-249998D01*
G01*
G37*
G36*
G01*
X218118750Y-74956248D02*
X218118750Y-75856252D01*
G75*
G02*
X217868752Y-76106250I-249998J0D01*
G01*
X217343748Y-76106250D01*
G75*
G02*
X217093750Y-75856252I0J249998D01*
G01*
X217093750Y-74956248D01*
G75*
G02*
X217343748Y-74706250I249998J0D01*
G01*
X217868752Y-74706250D01*
G75*
G02*
X218118750Y-74956248I0J-249998D01*
G01*
G37*
G36*
G01*
X216293750Y-78131248D02*
X216293750Y-79031252D01*
G75*
G02*
X216043752Y-79281250I-249998J0D01*
G01*
X215518748Y-79281250D01*
G75*
G02*
X215268750Y-79031252I0J249998D01*
G01*
X215268750Y-78131248D01*
G75*
G02*
X215518748Y-77881250I249998J0D01*
G01*
X216043752Y-77881250D01*
G75*
G02*
X216293750Y-78131248I0J-249998D01*
G01*
G37*
G36*
G01*
X218118750Y-78131248D02*
X218118750Y-79031252D01*
G75*
G02*
X217868752Y-79281250I-249998J0D01*
G01*
X217343748Y-79281250D01*
G75*
G02*
X217093750Y-79031252I0J249998D01*
G01*
X217093750Y-78131248D01*
G75*
G02*
X217343748Y-77881250I249998J0D01*
G01*
X217868752Y-77881250D01*
G75*
G02*
X218118750Y-78131248I0J-249998D01*
G01*
G37*
G36*
G01*
X190217233Y-94091145D02*
X190216347Y-94091084D01*
G75*
G02*
X189171416Y-92891347I77403J1122334D01*
G01*
X189211416Y-92311347D01*
G75*
G02*
X190411153Y-91266416I1122334J-77403D01*
G01*
X190411153Y-91266416D01*
G75*
G02*
X191456084Y-92466153I-77403J-1122334D01*
G01*
X191416084Y-93046153D01*
G75*
G02*
X190216347Y-94091084I-1122334J77403D01*
G01*
G37*
D18*
X190333750Y-92388750D03*
G36*
G01*
X183232438Y-95766100D02*
X183232433Y-95766095D01*
G75*
G02*
X183146405Y-94177433I751317J837345D01*
G01*
X184456407Y-92717433D01*
G75*
G02*
X186045069Y-92631405I837345J-751317D01*
G01*
X186045069Y-92631405D01*
G75*
G02*
X186131097Y-94220067I-751317J-837345D01*
G01*
X184821095Y-95680067D01*
G75*
G02*
X183232433Y-95766095I-837345J751317D01*
G01*
G37*
D19*
X187793750Y-97468750D03*
D18*
X185293750Y-93468750D03*
D20*
X182713750Y-97468750D03*
X192873750Y-97468750D03*
G36*
G01*
X190217233Y-75041145D02*
X190216347Y-75041084D01*
G75*
G02*
X189171416Y-73841347I77403J1122334D01*
G01*
X189211416Y-73261347D01*
G75*
G02*
X190411153Y-72216416I1122334J-77403D01*
G01*
X190411153Y-72216416D01*
G75*
G02*
X191456084Y-73416153I-77403J-1122334D01*
G01*
X191416084Y-73996153D01*
G75*
G02*
X190216347Y-75041084I-1122334J77403D01*
G01*
G37*
D18*
X190333750Y-73338750D03*
G36*
G01*
X183232438Y-76716100D02*
X183232433Y-76716095D01*
G75*
G02*
X183146405Y-75127433I751317J837345D01*
G01*
X184456407Y-73667433D01*
G75*
G02*
X186045069Y-73581405I837345J-751317D01*
G01*
X186045069Y-73581405D01*
G75*
G02*
X186131097Y-75170067I-751317J-837345D01*
G01*
X184821095Y-76630067D01*
G75*
G02*
X183232433Y-76716095I-837345J751317D01*
G01*
G37*
D19*
X187793750Y-78418750D03*
D18*
X185293750Y-74418750D03*
D20*
X182713750Y-78418750D03*
X192873750Y-78418750D03*
G36*
G01*
X171167233Y-94091145D02*
X171166347Y-94091084D01*
G75*
G02*
X170121416Y-92891347I77403J1122334D01*
G01*
X170161416Y-92311347D01*
G75*
G02*
X171361153Y-91266416I1122334J-77403D01*
G01*
X171361153Y-91266416D01*
G75*
G02*
X172406084Y-92466153I-77403J-1122334D01*
G01*
X172366084Y-93046153D01*
G75*
G02*
X171166347Y-94091084I-1122334J77403D01*
G01*
G37*
D18*
X171283750Y-92388750D03*
G36*
G01*
X164182438Y-95766100D02*
X164182433Y-95766095D01*
G75*
G02*
X164096405Y-94177433I751317J837345D01*
G01*
X165406407Y-92717433D01*
G75*
G02*
X166995069Y-92631405I837345J-751317D01*
G01*
X166995069Y-92631405D01*
G75*
G02*
X167081097Y-94220067I-751317J-837345D01*
G01*
X165771095Y-95680067D01*
G75*
G02*
X164182433Y-95766095I-837345J751317D01*
G01*
G37*
D19*
X168743750Y-97468750D03*
D18*
X166243750Y-93468750D03*
D20*
X163663750Y-97468750D03*
X173823750Y-97468750D03*
G36*
G01*
X171167233Y-75041145D02*
X171166347Y-75041084D01*
G75*
G02*
X170121416Y-73841347I77403J1122334D01*
G01*
X170161416Y-73261347D01*
G75*
G02*
X171361153Y-72216416I1122334J-77403D01*
G01*
X171361153Y-72216416D01*
G75*
G02*
X172406084Y-73416153I-77403J-1122334D01*
G01*
X172366084Y-73996153D01*
G75*
G02*
X171166347Y-75041084I-1122334J77403D01*
G01*
G37*
D18*
X171283750Y-73338750D03*
G36*
G01*
X164182438Y-76716100D02*
X164182433Y-76716095D01*
G75*
G02*
X164096405Y-75127433I751317J837345D01*
G01*
X165406407Y-73667433D01*
G75*
G02*
X166995069Y-73581405I837345J-751317D01*
G01*
X166995069Y-73581405D01*
G75*
G02*
X167081097Y-75170067I-751317J-837345D01*
G01*
X165771095Y-76630067D01*
G75*
G02*
X164182433Y-76716095I-837345J751317D01*
G01*
G37*
D19*
X168743750Y-78418750D03*
D18*
X166243750Y-74418750D03*
D20*
X163663750Y-78418750D03*
X173823750Y-78418750D03*
G36*
G01*
X152117233Y-94091145D02*
X152116347Y-94091084D01*
G75*
G02*
X151071416Y-92891347I77403J1122334D01*
G01*
X151111416Y-92311347D01*
G75*
G02*
X152311153Y-91266416I1122334J-77403D01*
G01*
X152311153Y-91266416D01*
G75*
G02*
X153356084Y-92466153I-77403J-1122334D01*
G01*
X153316084Y-93046153D01*
G75*
G02*
X152116347Y-94091084I-1122334J77403D01*
G01*
G37*
D18*
X152233750Y-92388750D03*
G36*
G01*
X145132438Y-95766100D02*
X145132433Y-95766095D01*
G75*
G02*
X145046405Y-94177433I751317J837345D01*
G01*
X146356407Y-92717433D01*
G75*
G02*
X147945069Y-92631405I837345J-751317D01*
G01*
X147945069Y-92631405D01*
G75*
G02*
X148031097Y-94220067I-751317J-837345D01*
G01*
X146721095Y-95680067D01*
G75*
G02*
X145132433Y-95766095I-837345J751317D01*
G01*
G37*
D19*
X149693750Y-97468750D03*
D18*
X147193750Y-93468750D03*
D20*
X144613750Y-97468750D03*
X154773750Y-97468750D03*
G36*
G01*
X152117233Y-75041145D02*
X152116347Y-75041084D01*
G75*
G02*
X151071416Y-73841347I77403J1122334D01*
G01*
X151111416Y-73261347D01*
G75*
G02*
X152311153Y-72216416I1122334J-77403D01*
G01*
X152311153Y-72216416D01*
G75*
G02*
X153356084Y-73416153I-77403J-1122334D01*
G01*
X153316084Y-73996153D01*
G75*
G02*
X152116347Y-75041084I-1122334J77403D01*
G01*
G37*
D18*
X152233750Y-73338750D03*
G36*
G01*
X145132438Y-76716100D02*
X145132433Y-76716095D01*
G75*
G02*
X145046405Y-75127433I751317J837345D01*
G01*
X146356407Y-73667433D01*
G75*
G02*
X147945069Y-73581405I837345J-751317D01*
G01*
X147945069Y-73581405D01*
G75*
G02*
X148031097Y-75170067I-751317J-837345D01*
G01*
X146721095Y-76630067D01*
G75*
G02*
X145132433Y-76716095I-837345J751317D01*
G01*
G37*
D19*
X149693750Y-78418750D03*
D18*
X147193750Y-74418750D03*
D20*
X144613750Y-78418750D03*
X154773750Y-78418750D03*
G36*
G01*
X133067233Y-94091145D02*
X133066347Y-94091084D01*
G75*
G02*
X132021416Y-92891347I77403J1122334D01*
G01*
X132061416Y-92311347D01*
G75*
G02*
X133261153Y-91266416I1122334J-77403D01*
G01*
X133261153Y-91266416D01*
G75*
G02*
X134306084Y-92466153I-77403J-1122334D01*
G01*
X134266084Y-93046153D01*
G75*
G02*
X133066347Y-94091084I-1122334J77403D01*
G01*
G37*
D18*
X133183750Y-92388750D03*
G36*
G01*
X126082438Y-95766100D02*
X126082433Y-95766095D01*
G75*
G02*
X125996405Y-94177433I751317J837345D01*
G01*
X127306407Y-92717433D01*
G75*
G02*
X128895069Y-92631405I837345J-751317D01*
G01*
X128895069Y-92631405D01*
G75*
G02*
X128981097Y-94220067I-751317J-837345D01*
G01*
X127671095Y-95680067D01*
G75*
G02*
X126082433Y-95766095I-837345J751317D01*
G01*
G37*
D19*
X130643750Y-97468750D03*
D18*
X128143750Y-93468750D03*
D20*
X125563750Y-97468750D03*
X135723750Y-97468750D03*
G36*
G01*
X133067233Y-75041145D02*
X133066347Y-75041084D01*
G75*
G02*
X132021416Y-73841347I77403J1122334D01*
G01*
X132061416Y-73261347D01*
G75*
G02*
X133261153Y-72216416I1122334J-77403D01*
G01*
X133261153Y-72216416D01*
G75*
G02*
X134306084Y-73416153I-77403J-1122334D01*
G01*
X134266084Y-73996153D01*
G75*
G02*
X133066347Y-75041084I-1122334J77403D01*
G01*
G37*
D18*
X133183750Y-73338750D03*
G36*
G01*
X126082438Y-76716100D02*
X126082433Y-76716095D01*
G75*
G02*
X125996405Y-75127433I751317J837345D01*
G01*
X127306407Y-73667433D01*
G75*
G02*
X128895069Y-73581405I837345J-751317D01*
G01*
X128895069Y-73581405D01*
G75*
G02*
X128981097Y-75170067I-751317J-837345D01*
G01*
X127671095Y-76630067D01*
G75*
G02*
X126082433Y-76716095I-837345J751317D01*
G01*
G37*
D19*
X130643750Y-78418750D03*
D18*
X128143750Y-74418750D03*
D20*
X125563750Y-78418750D03*
X135723750Y-78418750D03*
D21*
X196525000Y-95025000D03*
X196525000Y-98325000D03*
X196525000Y-75975000D03*
X196525000Y-79275000D03*
X177475000Y-95025000D03*
X177475000Y-98325000D03*
X177475000Y-75975000D03*
X177475000Y-79275000D03*
X158425000Y-95025000D03*
X158425000Y-98325000D03*
X158425000Y-75975000D03*
X158425000Y-79275000D03*
X139375000Y-95025000D03*
X139375000Y-98325000D03*
X139375000Y-75975000D03*
X139375000Y-79275000D03*
G36*
G01*
X216037500Y-86993750D02*
X216037500Y-86043750D01*
G75*
G02*
X216287500Y-85793750I250000J0D01*
G01*
X216787500Y-85793750D01*
G75*
G02*
X217037500Y-86043750I0J-250000D01*
G01*
X217037500Y-86993750D01*
G75*
G02*
X216787500Y-87243750I-250000J0D01*
G01*
X216287500Y-87243750D01*
G75*
G02*
X216037500Y-86993750I0J250000D01*
G01*
G37*
G36*
G01*
X217937500Y-86993750D02*
X217937500Y-86043750D01*
G75*
G02*
X218187500Y-85793750I250000J0D01*
G01*
X218687500Y-85793750D01*
G75*
G02*
X218937500Y-86043750I0J-250000D01*
G01*
X218937500Y-86993750D01*
G75*
G02*
X218687500Y-87243750I-250000J0D01*
G01*
X218187500Y-87243750D01*
G75*
G02*
X217937500Y-86993750I0J250000D01*
G01*
G37*
G36*
G01*
X199762500Y-103156250D02*
X200712500Y-103156250D01*
G75*
G02*
X200962500Y-103406250I0J-250000D01*
G01*
X200962500Y-103906250D01*
G75*
G02*
X200712500Y-104156250I-250000J0D01*
G01*
X199762500Y-104156250D01*
G75*
G02*
X199512500Y-103906250I0J250000D01*
G01*
X199512500Y-103406250D01*
G75*
G02*
X199762500Y-103156250I250000J0D01*
G01*
G37*
G36*
G01*
X199762500Y-105056250D02*
X200712500Y-105056250D01*
G75*
G02*
X200962500Y-105306250I0J-250000D01*
G01*
X200962500Y-105806250D01*
G75*
G02*
X200712500Y-106056250I-250000J0D01*
G01*
X199762500Y-106056250D01*
G75*
G02*
X199512500Y-105806250I0J250000D01*
G01*
X199512500Y-105306250D01*
G75*
G02*
X199762500Y-105056250I250000J0D01*
G01*
G37*
G36*
G01*
X210712500Y-106056250D02*
X209762500Y-106056250D01*
G75*
G02*
X209512500Y-105806250I0J250000D01*
G01*
X209512500Y-105306250D01*
G75*
G02*
X209762500Y-105056250I250000J0D01*
G01*
X210712500Y-105056250D01*
G75*
G02*
X210962500Y-105306250I0J-250000D01*
G01*
X210962500Y-105806250D01*
G75*
G02*
X210712500Y-106056250I-250000J0D01*
G01*
G37*
G36*
G01*
X210712500Y-104156250D02*
X209762500Y-104156250D01*
G75*
G02*
X209512500Y-103906250I0J250000D01*
G01*
X209512500Y-103406250D01*
G75*
G02*
X209762500Y-103156250I250000J0D01*
G01*
X210712500Y-103156250D01*
G75*
G02*
X210962500Y-103406250I0J-250000D01*
G01*
X210962500Y-103906250D01*
G75*
G02*
X210712500Y-104156250I-250000J0D01*
G01*
G37*
M02*
