G04 #@! TF.GenerationSoftware,KiCad,Pcbnew,(5.1.9)-1*
G04 #@! TF.CreationDate,2021-05-06T17:44:41-07:00*
G04 #@! TF.ProjectId,PCB,5043422e-6b69-4636-9164-5f7063625858,rev?*
G04 #@! TF.SameCoordinates,Original*
G04 #@! TF.FileFunction,Copper,L2,Bot*
G04 #@! TF.FilePolarity,Positive*
%FSLAX46Y46*%
G04 Gerber Fmt 4.6, Leading zero omitted, Abs format (unit mm)*
G04 Created by KiCad (PCBNEW (5.1.9)-1) date 2021-05-06 17:44:41*
%MOMM*%
%LPD*%
G01*
G04 APERTURE LIST*
G04 #@! TA.AperFunction,SMDPad,CuDef*
%ADD10R,0.550000X1.600000*%
G04 #@! TD*
G04 #@! TA.AperFunction,SMDPad,CuDef*
%ADD11R,1.600000X0.550000*%
G04 #@! TD*
G04 #@! TA.AperFunction,ComponentPad*
%ADD12C,0.700000*%
G04 #@! TD*
G04 #@! TA.AperFunction,ComponentPad*
%ADD13O,0.900000X2.400000*%
G04 #@! TD*
G04 #@! TA.AperFunction,ComponentPad*
%ADD14O,0.900000X1.700000*%
G04 #@! TD*
G04 #@! TA.AperFunction,SMDPad,CuDef*
%ADD15R,1.400000X1.200000*%
G04 #@! TD*
G04 #@! TA.AperFunction,SMDPad,CuDef*
%ADD16R,1.100000X1.800000*%
G04 #@! TD*
G04 #@! TA.AperFunction,ComponentPad*
%ADD17C,2.250000*%
G04 #@! TD*
G04 #@! TA.AperFunction,SMDPad,CuDef*
%ADD18R,1.200000X0.900000*%
G04 #@! TD*
G04 #@! TA.AperFunction,ViaPad*
%ADD19C,0.800000*%
G04 #@! TD*
G04 #@! TA.AperFunction,Conductor*
%ADD20C,0.381000*%
G04 #@! TD*
G04 #@! TA.AperFunction,Conductor*
%ADD21C,0.254000*%
G04 #@! TD*
G04 #@! TA.AperFunction,Conductor*
%ADD22C,0.100000*%
G04 #@! TD*
G04 APERTURE END LIST*
G04 #@! TA.AperFunction,SMDPad,CuDef*
G36*
G01*
X218731250Y-93343750D02*
X218731250Y-92393750D01*
G75*
G02*
X218981250Y-92143750I250000J0D01*
G01*
X219481250Y-92143750D01*
G75*
G02*
X219731250Y-92393750I0J-250000D01*
G01*
X219731250Y-93343750D01*
G75*
G02*
X219481250Y-93593750I-250000J0D01*
G01*
X218981250Y-93593750D01*
G75*
G02*
X218731250Y-93343750I0J250000D01*
G01*
G37*
G04 #@! TD.AperFunction*
G04 #@! TA.AperFunction,SMDPad,CuDef*
G36*
G01*
X216831250Y-93343750D02*
X216831250Y-92393750D01*
G75*
G02*
X217081250Y-92143750I250000J0D01*
G01*
X217581250Y-92143750D01*
G75*
G02*
X217831250Y-92393750I0J-250000D01*
G01*
X217831250Y-93343750D01*
G75*
G02*
X217581250Y-93593750I-250000J0D01*
G01*
X217081250Y-93593750D01*
G75*
G02*
X216831250Y-93343750I0J250000D01*
G01*
G37*
G04 #@! TD.AperFunction*
G04 #@! TA.AperFunction,SMDPad,CuDef*
G36*
G01*
X206825000Y-97312500D02*
X206825000Y-96362500D01*
G75*
G02*
X207075000Y-96112500I250000J0D01*
G01*
X207575000Y-96112500D01*
G75*
G02*
X207825000Y-96362500I0J-250000D01*
G01*
X207825000Y-97312500D01*
G75*
G02*
X207575000Y-97562500I-250000J0D01*
G01*
X207075000Y-97562500D01*
G75*
G02*
X206825000Y-97312500I0J250000D01*
G01*
G37*
G04 #@! TD.AperFunction*
G04 #@! TA.AperFunction,SMDPad,CuDef*
G36*
G01*
X204925000Y-97312500D02*
X204925000Y-96362500D01*
G75*
G02*
X205175000Y-96112500I250000J0D01*
G01*
X205675000Y-96112500D01*
G75*
G02*
X205925000Y-96362500I0J-250000D01*
G01*
X205925000Y-97312500D01*
G75*
G02*
X205675000Y-97562500I-250000J0D01*
G01*
X205175000Y-97562500D01*
G75*
G02*
X204925000Y-97312500I0J250000D01*
G01*
G37*
G04 #@! TD.AperFunction*
D10*
X212350000Y-93150000D03*
X211550000Y-93150000D03*
X210750000Y-93150000D03*
X209950000Y-93150000D03*
X209150000Y-93150000D03*
X208350000Y-93150000D03*
X207550000Y-93150000D03*
X206750000Y-93150000D03*
D11*
X205300000Y-91700000D03*
X205300000Y-90900000D03*
X205300000Y-90100000D03*
X205300000Y-89300000D03*
X205300000Y-88500000D03*
X205300000Y-87700000D03*
X205300000Y-86900000D03*
X205300000Y-86100000D03*
D10*
X206750000Y-84650000D03*
X207550000Y-84650000D03*
X208350000Y-84650000D03*
X209150000Y-84650000D03*
X209950000Y-84650000D03*
X210750000Y-84650000D03*
X211550000Y-84650000D03*
X212350000Y-84650000D03*
D11*
X213800000Y-86100000D03*
X213800000Y-86900000D03*
X213800000Y-87700000D03*
X213800000Y-88500000D03*
X213800000Y-89300000D03*
X213800000Y-90100000D03*
X213800000Y-90900000D03*
X213800000Y-91700000D03*
D12*
X206375000Y-74612500D03*
X207225000Y-74612500D03*
X208075000Y-74612500D03*
X208925000Y-74612500D03*
X209775000Y-74612500D03*
X210625000Y-74612500D03*
X211475000Y-74612500D03*
X212325000Y-74612500D03*
X207225000Y-73262500D03*
X208925000Y-73262500D03*
X208075000Y-73262500D03*
X206375000Y-73262500D03*
X210625000Y-73262500D03*
X211475000Y-73262500D03*
X212325000Y-73262500D03*
X209775000Y-73262500D03*
D13*
X205025000Y-73632500D03*
X213675000Y-73632500D03*
D14*
X205025000Y-70252500D03*
X213675000Y-70252500D03*
G04 #@! TA.AperFunction,SMDPad,CuDef*
G36*
G01*
X205418750Y-76543749D02*
X205418750Y-77443751D01*
G75*
G02*
X205168751Y-77693750I-249999J0D01*
G01*
X204643749Y-77693750D01*
G75*
G02*
X204393750Y-77443751I0J249999D01*
G01*
X204393750Y-76543749D01*
G75*
G02*
X204643749Y-76293750I249999J0D01*
G01*
X205168751Y-76293750D01*
G75*
G02*
X205418750Y-76543749I0J-249999D01*
G01*
G37*
G04 #@! TD.AperFunction*
G04 #@! TA.AperFunction,SMDPad,CuDef*
G36*
G01*
X203593750Y-76543749D02*
X203593750Y-77443751D01*
G75*
G02*
X203343751Y-77693750I-249999J0D01*
G01*
X202818749Y-77693750D01*
G75*
G02*
X202568750Y-77443751I0J249999D01*
G01*
X202568750Y-76543749D01*
G75*
G02*
X202818749Y-76293750I249999J0D01*
G01*
X203343751Y-76293750D01*
G75*
G02*
X203593750Y-76543749I0J-249999D01*
G01*
G37*
G04 #@! TD.AperFunction*
G04 #@! TA.AperFunction,SMDPad,CuDef*
G36*
G01*
X209099999Y-77950000D02*
X210000001Y-77950000D01*
G75*
G02*
X210250000Y-78199999I0J-249999D01*
G01*
X210250000Y-78725001D01*
G75*
G02*
X210000001Y-78975000I-249999J0D01*
G01*
X209099999Y-78975000D01*
G75*
G02*
X208850000Y-78725001I0J249999D01*
G01*
X208850000Y-78199999D01*
G75*
G02*
X209099999Y-77950000I249999J0D01*
G01*
G37*
G04 #@! TD.AperFunction*
G04 #@! TA.AperFunction,SMDPad,CuDef*
G36*
G01*
X209099999Y-79775000D02*
X210000001Y-79775000D01*
G75*
G02*
X210250000Y-80024999I0J-249999D01*
G01*
X210250000Y-80550001D01*
G75*
G02*
X210000001Y-80800000I-249999J0D01*
G01*
X209099999Y-80800000D01*
G75*
G02*
X208850000Y-80550001I0J249999D01*
G01*
X208850000Y-80024999D01*
G75*
G02*
X209099999Y-79775000I249999J0D01*
G01*
G37*
G04 #@! TD.AperFunction*
G04 #@! TA.AperFunction,SMDPad,CuDef*
G36*
G01*
X201443750Y-77012500D02*
X200193750Y-77012500D01*
G75*
G02*
X199943750Y-76762500I0J250000D01*
G01*
X199943750Y-76012500D01*
G75*
G02*
X200193750Y-75762500I250000J0D01*
G01*
X201443750Y-75762500D01*
G75*
G02*
X201693750Y-76012500I0J-250000D01*
G01*
X201693750Y-76762500D01*
G75*
G02*
X201443750Y-77012500I-250000J0D01*
G01*
G37*
G04 #@! TD.AperFunction*
G04 #@! TA.AperFunction,SMDPad,CuDef*
G36*
G01*
X201443750Y-79812500D02*
X200193750Y-79812500D01*
G75*
G02*
X199943750Y-79562500I0J250000D01*
G01*
X199943750Y-78812500D01*
G75*
G02*
X200193750Y-78562500I250000J0D01*
G01*
X201443750Y-78562500D01*
G75*
G02*
X201693750Y-78812500I0J-250000D01*
G01*
X201693750Y-79562500D01*
G75*
G02*
X201443750Y-79812500I-250000J0D01*
G01*
G37*
G04 #@! TD.AperFunction*
D15*
X206337500Y-105456250D03*
X204137500Y-105456250D03*
X204137500Y-103756250D03*
X206337500Y-103756250D03*
D16*
X219337500Y-103112500D03*
X215637500Y-96912500D03*
X215637500Y-103112500D03*
X219337500Y-96912500D03*
G04 #@! TA.AperFunction,SMDPad,CuDef*
G36*
G01*
X201162499Y-81125000D02*
X202062501Y-81125000D01*
G75*
G02*
X202312500Y-81374999I0J-249999D01*
G01*
X202312500Y-81900001D01*
G75*
G02*
X202062501Y-82150000I-249999J0D01*
G01*
X201162499Y-82150000D01*
G75*
G02*
X200912500Y-81900001I0J249999D01*
G01*
X200912500Y-81374999D01*
G75*
G02*
X201162499Y-81125000I249999J0D01*
G01*
G37*
G04 #@! TD.AperFunction*
G04 #@! TA.AperFunction,SMDPad,CuDef*
G36*
G01*
X201162499Y-82950000D02*
X202062501Y-82950000D01*
G75*
G02*
X202312500Y-83199999I0J-249999D01*
G01*
X202312500Y-83725001D01*
G75*
G02*
X202062501Y-83975000I-249999J0D01*
G01*
X201162499Y-83975000D01*
G75*
G02*
X200912500Y-83725001I0J249999D01*
G01*
X200912500Y-83199999D01*
G75*
G02*
X201162499Y-82950000I249999J0D01*
G01*
G37*
G04 #@! TD.AperFunction*
G04 #@! TA.AperFunction,SMDPad,CuDef*
G36*
G01*
X213968751Y-98818750D02*
X213068749Y-98818750D01*
G75*
G02*
X212818750Y-98568751I0J249999D01*
G01*
X212818750Y-98043749D01*
G75*
G02*
X213068749Y-97793750I249999J0D01*
G01*
X213968751Y-97793750D01*
G75*
G02*
X214218750Y-98043749I0J-249999D01*
G01*
X214218750Y-98568751D01*
G75*
G02*
X213968751Y-98818750I-249999J0D01*
G01*
G37*
G04 #@! TD.AperFunction*
G04 #@! TA.AperFunction,SMDPad,CuDef*
G36*
G01*
X213968751Y-100643750D02*
X213068749Y-100643750D01*
G75*
G02*
X212818750Y-100393751I0J249999D01*
G01*
X212818750Y-99868749D01*
G75*
G02*
X213068749Y-99618750I249999J0D01*
G01*
X213968751Y-99618750D01*
G75*
G02*
X214218750Y-99868749I0J-249999D01*
G01*
X214218750Y-100393751D01*
G75*
G02*
X213968751Y-100643750I-249999J0D01*
G01*
G37*
G04 #@! TD.AperFunction*
G04 #@! TA.AperFunction,SMDPad,CuDef*
G36*
G01*
X216293750Y-74956249D02*
X216293750Y-75856251D01*
G75*
G02*
X216043751Y-76106250I-249999J0D01*
G01*
X215518749Y-76106250D01*
G75*
G02*
X215268750Y-75856251I0J249999D01*
G01*
X215268750Y-74956249D01*
G75*
G02*
X215518749Y-74706250I249999J0D01*
G01*
X216043751Y-74706250D01*
G75*
G02*
X216293750Y-74956249I0J-249999D01*
G01*
G37*
G04 #@! TD.AperFunction*
G04 #@! TA.AperFunction,SMDPad,CuDef*
G36*
G01*
X218118750Y-74956249D02*
X218118750Y-75856251D01*
G75*
G02*
X217868751Y-76106250I-249999J0D01*
G01*
X217343749Y-76106250D01*
G75*
G02*
X217093750Y-75856251I0J249999D01*
G01*
X217093750Y-74956249D01*
G75*
G02*
X217343749Y-74706250I249999J0D01*
G01*
X217868751Y-74706250D01*
G75*
G02*
X218118750Y-74956249I0J-249999D01*
G01*
G37*
G04 #@! TD.AperFunction*
G04 #@! TA.AperFunction,SMDPad,CuDef*
G36*
G01*
X216293750Y-78131249D02*
X216293750Y-79031251D01*
G75*
G02*
X216043751Y-79281250I-249999J0D01*
G01*
X215518749Y-79281250D01*
G75*
G02*
X215268750Y-79031251I0J249999D01*
G01*
X215268750Y-78131249D01*
G75*
G02*
X215518749Y-77881250I249999J0D01*
G01*
X216043751Y-77881250D01*
G75*
G02*
X216293750Y-78131249I0J-249999D01*
G01*
G37*
G04 #@! TD.AperFunction*
G04 #@! TA.AperFunction,SMDPad,CuDef*
G36*
G01*
X218118750Y-78131249D02*
X218118750Y-79031251D01*
G75*
G02*
X217868751Y-79281250I-249999J0D01*
G01*
X217343749Y-79281250D01*
G75*
G02*
X217093750Y-79031251I0J249999D01*
G01*
X217093750Y-78131249D01*
G75*
G02*
X217343749Y-77881250I249999J0D01*
G01*
X217868751Y-77881250D01*
G75*
G02*
X218118750Y-78131249I0J-249999D01*
G01*
G37*
G04 #@! TD.AperFunction*
G04 #@! TA.AperFunction,ComponentPad*
G36*
G01*
X190217233Y-94091145D02*
X190216347Y-94091084D01*
G75*
G02*
X189171416Y-92891347I77403J1122334D01*
G01*
X189211416Y-92311347D01*
G75*
G02*
X190411153Y-91266416I1122334J-77403D01*
G01*
X190411153Y-91266416D01*
G75*
G02*
X191456084Y-92466153I-77403J-1122334D01*
G01*
X191416084Y-93046153D01*
G75*
G02*
X190216347Y-94091084I-1122334J77403D01*
G01*
G37*
G04 #@! TD.AperFunction*
D17*
X190333750Y-92388750D03*
G04 #@! TA.AperFunction,ComponentPad*
G36*
G01*
X183232438Y-95766100D02*
X183232433Y-95766095D01*
G75*
G02*
X183146405Y-94177433I751317J837345D01*
G01*
X184456407Y-92717433D01*
G75*
G02*
X186045069Y-92631405I837345J-751317D01*
G01*
X186045069Y-92631405D01*
G75*
G02*
X186131097Y-94220067I-751317J-837345D01*
G01*
X184821095Y-95680067D01*
G75*
G02*
X183232433Y-95766095I-837345J751317D01*
G01*
G37*
G04 #@! TD.AperFunction*
X185293750Y-93468750D03*
G04 #@! TA.AperFunction,ComponentPad*
G36*
G01*
X190217233Y-75041145D02*
X190216347Y-75041084D01*
G75*
G02*
X189171416Y-73841347I77403J1122334D01*
G01*
X189211416Y-73261347D01*
G75*
G02*
X190411153Y-72216416I1122334J-77403D01*
G01*
X190411153Y-72216416D01*
G75*
G02*
X191456084Y-73416153I-77403J-1122334D01*
G01*
X191416084Y-73996153D01*
G75*
G02*
X190216347Y-75041084I-1122334J77403D01*
G01*
G37*
G04 #@! TD.AperFunction*
X190333750Y-73338750D03*
G04 #@! TA.AperFunction,ComponentPad*
G36*
G01*
X183232438Y-76716100D02*
X183232433Y-76716095D01*
G75*
G02*
X183146405Y-75127433I751317J837345D01*
G01*
X184456407Y-73667433D01*
G75*
G02*
X186045069Y-73581405I837345J-751317D01*
G01*
X186045069Y-73581405D01*
G75*
G02*
X186131097Y-75170067I-751317J-837345D01*
G01*
X184821095Y-76630067D01*
G75*
G02*
X183232433Y-76716095I-837345J751317D01*
G01*
G37*
G04 #@! TD.AperFunction*
X185293750Y-74418750D03*
G04 #@! TA.AperFunction,ComponentPad*
G36*
G01*
X171167233Y-94091145D02*
X171166347Y-94091084D01*
G75*
G02*
X170121416Y-92891347I77403J1122334D01*
G01*
X170161416Y-92311347D01*
G75*
G02*
X171361153Y-91266416I1122334J-77403D01*
G01*
X171361153Y-91266416D01*
G75*
G02*
X172406084Y-92466153I-77403J-1122334D01*
G01*
X172366084Y-93046153D01*
G75*
G02*
X171166347Y-94091084I-1122334J77403D01*
G01*
G37*
G04 #@! TD.AperFunction*
X171283750Y-92388750D03*
G04 #@! TA.AperFunction,ComponentPad*
G36*
G01*
X164182438Y-95766100D02*
X164182433Y-95766095D01*
G75*
G02*
X164096405Y-94177433I751317J837345D01*
G01*
X165406407Y-92717433D01*
G75*
G02*
X166995069Y-92631405I837345J-751317D01*
G01*
X166995069Y-92631405D01*
G75*
G02*
X167081097Y-94220067I-751317J-837345D01*
G01*
X165771095Y-95680067D01*
G75*
G02*
X164182433Y-95766095I-837345J751317D01*
G01*
G37*
G04 #@! TD.AperFunction*
X166243750Y-93468750D03*
G04 #@! TA.AperFunction,ComponentPad*
G36*
G01*
X171167233Y-75041145D02*
X171166347Y-75041084D01*
G75*
G02*
X170121416Y-73841347I77403J1122334D01*
G01*
X170161416Y-73261347D01*
G75*
G02*
X171361153Y-72216416I1122334J-77403D01*
G01*
X171361153Y-72216416D01*
G75*
G02*
X172406084Y-73416153I-77403J-1122334D01*
G01*
X172366084Y-73996153D01*
G75*
G02*
X171166347Y-75041084I-1122334J77403D01*
G01*
G37*
G04 #@! TD.AperFunction*
X171283750Y-73338750D03*
G04 #@! TA.AperFunction,ComponentPad*
G36*
G01*
X164182438Y-76716100D02*
X164182433Y-76716095D01*
G75*
G02*
X164096405Y-75127433I751317J837345D01*
G01*
X165406407Y-73667433D01*
G75*
G02*
X166995069Y-73581405I837345J-751317D01*
G01*
X166995069Y-73581405D01*
G75*
G02*
X167081097Y-75170067I-751317J-837345D01*
G01*
X165771095Y-76630067D01*
G75*
G02*
X164182433Y-76716095I-837345J751317D01*
G01*
G37*
G04 #@! TD.AperFunction*
X166243750Y-74418750D03*
G04 #@! TA.AperFunction,ComponentPad*
G36*
G01*
X152117233Y-94091145D02*
X152116347Y-94091084D01*
G75*
G02*
X151071416Y-92891347I77403J1122334D01*
G01*
X151111416Y-92311347D01*
G75*
G02*
X152311153Y-91266416I1122334J-77403D01*
G01*
X152311153Y-91266416D01*
G75*
G02*
X153356084Y-92466153I-77403J-1122334D01*
G01*
X153316084Y-93046153D01*
G75*
G02*
X152116347Y-94091084I-1122334J77403D01*
G01*
G37*
G04 #@! TD.AperFunction*
X152233750Y-92388750D03*
G04 #@! TA.AperFunction,ComponentPad*
G36*
G01*
X145132438Y-95766100D02*
X145132433Y-95766095D01*
G75*
G02*
X145046405Y-94177433I751317J837345D01*
G01*
X146356407Y-92717433D01*
G75*
G02*
X147945069Y-92631405I837345J-751317D01*
G01*
X147945069Y-92631405D01*
G75*
G02*
X148031097Y-94220067I-751317J-837345D01*
G01*
X146721095Y-95680067D01*
G75*
G02*
X145132433Y-95766095I-837345J751317D01*
G01*
G37*
G04 #@! TD.AperFunction*
X147193750Y-93468750D03*
G04 #@! TA.AperFunction,ComponentPad*
G36*
G01*
X152117233Y-75041145D02*
X152116347Y-75041084D01*
G75*
G02*
X151071416Y-73841347I77403J1122334D01*
G01*
X151111416Y-73261347D01*
G75*
G02*
X152311153Y-72216416I1122334J-77403D01*
G01*
X152311153Y-72216416D01*
G75*
G02*
X153356084Y-73416153I-77403J-1122334D01*
G01*
X153316084Y-73996153D01*
G75*
G02*
X152116347Y-75041084I-1122334J77403D01*
G01*
G37*
G04 #@! TD.AperFunction*
X152233750Y-73338750D03*
G04 #@! TA.AperFunction,ComponentPad*
G36*
G01*
X145132438Y-76716100D02*
X145132433Y-76716095D01*
G75*
G02*
X145046405Y-75127433I751317J837345D01*
G01*
X146356407Y-73667433D01*
G75*
G02*
X147945069Y-73581405I837345J-751317D01*
G01*
X147945069Y-73581405D01*
G75*
G02*
X148031097Y-75170067I-751317J-837345D01*
G01*
X146721095Y-76630067D01*
G75*
G02*
X145132433Y-76716095I-837345J751317D01*
G01*
G37*
G04 #@! TD.AperFunction*
X147193750Y-74418750D03*
G04 #@! TA.AperFunction,ComponentPad*
G36*
G01*
X133067233Y-94091145D02*
X133066347Y-94091084D01*
G75*
G02*
X132021416Y-92891347I77403J1122334D01*
G01*
X132061416Y-92311347D01*
G75*
G02*
X133261153Y-91266416I1122334J-77403D01*
G01*
X133261153Y-91266416D01*
G75*
G02*
X134306084Y-92466153I-77403J-1122334D01*
G01*
X134266084Y-93046153D01*
G75*
G02*
X133066347Y-94091084I-1122334J77403D01*
G01*
G37*
G04 #@! TD.AperFunction*
X133183750Y-92388750D03*
G04 #@! TA.AperFunction,ComponentPad*
G36*
G01*
X126082438Y-95766100D02*
X126082433Y-95766095D01*
G75*
G02*
X125996405Y-94177433I751317J837345D01*
G01*
X127306407Y-92717433D01*
G75*
G02*
X128895069Y-92631405I837345J-751317D01*
G01*
X128895069Y-92631405D01*
G75*
G02*
X128981097Y-94220067I-751317J-837345D01*
G01*
X127671095Y-95680067D01*
G75*
G02*
X126082433Y-95766095I-837345J751317D01*
G01*
G37*
G04 #@! TD.AperFunction*
X128143750Y-93468750D03*
G04 #@! TA.AperFunction,ComponentPad*
G36*
G01*
X133067233Y-75041145D02*
X133066347Y-75041084D01*
G75*
G02*
X132021416Y-73841347I77403J1122334D01*
G01*
X132061416Y-73261347D01*
G75*
G02*
X133261153Y-72216416I1122334J-77403D01*
G01*
X133261153Y-72216416D01*
G75*
G02*
X134306084Y-73416153I-77403J-1122334D01*
G01*
X134266084Y-73996153D01*
G75*
G02*
X133066347Y-75041084I-1122334J77403D01*
G01*
G37*
G04 #@! TD.AperFunction*
X133183750Y-73338750D03*
G04 #@! TA.AperFunction,ComponentPad*
G36*
G01*
X126082438Y-76716100D02*
X126082433Y-76716095D01*
G75*
G02*
X125996405Y-75127433I751317J837345D01*
G01*
X127306407Y-73667433D01*
G75*
G02*
X128895069Y-73581405I837345J-751317D01*
G01*
X128895069Y-73581405D01*
G75*
G02*
X128981097Y-75170067I-751317J-837345D01*
G01*
X127671095Y-76630067D01*
G75*
G02*
X126082433Y-76716095I-837345J751317D01*
G01*
G37*
G04 #@! TD.AperFunction*
X128143750Y-74418750D03*
D18*
X196525000Y-95025000D03*
X196525000Y-98325000D03*
X196525000Y-75975000D03*
X196525000Y-79275000D03*
X177475000Y-95025000D03*
X177475000Y-98325000D03*
X177475000Y-75975000D03*
X177475000Y-79275000D03*
X158425000Y-95025000D03*
X158425000Y-98325000D03*
X158425000Y-75975000D03*
X158425000Y-79275000D03*
X139375000Y-95025000D03*
X139375000Y-98325000D03*
X139375000Y-75975000D03*
X139375000Y-79275000D03*
G04 #@! TA.AperFunction,SMDPad,CuDef*
G36*
G01*
X216037500Y-86993750D02*
X216037500Y-86043750D01*
G75*
G02*
X216287500Y-85793750I250000J0D01*
G01*
X216787500Y-85793750D01*
G75*
G02*
X217037500Y-86043750I0J-250000D01*
G01*
X217037500Y-86993750D01*
G75*
G02*
X216787500Y-87243750I-250000J0D01*
G01*
X216287500Y-87243750D01*
G75*
G02*
X216037500Y-86993750I0J250000D01*
G01*
G37*
G04 #@! TD.AperFunction*
G04 #@! TA.AperFunction,SMDPad,CuDef*
G36*
G01*
X217937500Y-86993750D02*
X217937500Y-86043750D01*
G75*
G02*
X218187500Y-85793750I250000J0D01*
G01*
X218687500Y-85793750D01*
G75*
G02*
X218937500Y-86043750I0J-250000D01*
G01*
X218937500Y-86993750D01*
G75*
G02*
X218687500Y-87243750I-250000J0D01*
G01*
X218187500Y-87243750D01*
G75*
G02*
X217937500Y-86993750I0J250000D01*
G01*
G37*
G04 #@! TD.AperFunction*
G04 #@! TA.AperFunction,SMDPad,CuDef*
G36*
G01*
X199762500Y-103156250D02*
X200712500Y-103156250D01*
G75*
G02*
X200962500Y-103406250I0J-250000D01*
G01*
X200962500Y-103906250D01*
G75*
G02*
X200712500Y-104156250I-250000J0D01*
G01*
X199762500Y-104156250D01*
G75*
G02*
X199512500Y-103906250I0J250000D01*
G01*
X199512500Y-103406250D01*
G75*
G02*
X199762500Y-103156250I250000J0D01*
G01*
G37*
G04 #@! TD.AperFunction*
G04 #@! TA.AperFunction,SMDPad,CuDef*
G36*
G01*
X199762500Y-105056250D02*
X200712500Y-105056250D01*
G75*
G02*
X200962500Y-105306250I0J-250000D01*
G01*
X200962500Y-105806250D01*
G75*
G02*
X200712500Y-106056250I-250000J0D01*
G01*
X199762500Y-106056250D01*
G75*
G02*
X199512500Y-105806250I0J250000D01*
G01*
X199512500Y-105306250D01*
G75*
G02*
X199762500Y-105056250I250000J0D01*
G01*
G37*
G04 #@! TD.AperFunction*
G04 #@! TA.AperFunction,SMDPad,CuDef*
G36*
G01*
X210712500Y-106056250D02*
X209762500Y-106056250D01*
G75*
G02*
X209512500Y-105806250I0J250000D01*
G01*
X209512500Y-105306250D01*
G75*
G02*
X209762500Y-105056250I250000J0D01*
G01*
X210712500Y-105056250D01*
G75*
G02*
X210962500Y-105306250I0J-250000D01*
G01*
X210962500Y-105806250D01*
G75*
G02*
X210712500Y-106056250I-250000J0D01*
G01*
G37*
G04 #@! TD.AperFunction*
G04 #@! TA.AperFunction,SMDPad,CuDef*
G36*
G01*
X210712500Y-104156250D02*
X209762500Y-104156250D01*
G75*
G02*
X209512500Y-103906250I0J250000D01*
G01*
X209512500Y-103406250D01*
G75*
G02*
X209762500Y-103156250I250000J0D01*
G01*
X210712500Y-103156250D01*
G75*
G02*
X210962500Y-103406250I0J-250000D01*
G01*
X210962500Y-103906250D01*
G75*
G02*
X210712500Y-104156250I-250000J0D01*
G01*
G37*
G04 #@! TD.AperFunction*
D19*
X203081250Y-81637500D03*
X207168750Y-80962500D03*
X219075000Y-74612500D03*
X220662500Y-89693750D03*
X219751558Y-86401558D03*
X219075000Y-80962500D03*
X217487500Y-84137500D03*
X199868750Y-81118750D03*
X217487500Y-95250000D03*
X219075000Y-90487500D03*
X205419157Y-98262907D03*
X209550000Y-99218750D03*
X211931250Y-82550000D03*
X211931250Y-104775000D03*
X211931250Y-99218750D03*
X200818750Y-86312497D03*
X203200000Y-86312497D03*
X206375000Y-76200000D03*
X202406250Y-75406250D03*
X212586444Y-76200000D03*
X200818750Y-87312500D03*
X203200000Y-87312500D03*
X210287987Y-76208335D03*
X216693750Y-90827000D03*
X216693750Y-89373000D03*
X215637500Y-93925000D03*
X215637500Y-84365750D03*
X208756250Y-76993750D03*
D20*
X201612500Y-81637500D02*
X203081250Y-81637500D01*
X204037500Y-105556250D02*
X204137500Y-105456250D01*
X200237500Y-105556250D02*
X204037500Y-105556250D01*
X210137500Y-103756250D02*
X210237500Y-103656250D01*
X206337500Y-103756250D02*
X210137500Y-103756250D01*
X204440402Y-105456250D02*
X204137500Y-105456250D01*
X206140402Y-103756250D02*
X204440402Y-105456250D01*
X206337500Y-103756250D02*
X206140402Y-103756250D01*
X213870000Y-73773750D02*
X218236250Y-73773750D01*
X218236250Y-73773750D02*
X219075000Y-74612500D01*
X206298750Y-74688750D02*
X205581250Y-75406250D01*
X204668750Y-75406250D02*
X203081250Y-76993750D01*
X205581250Y-75406250D02*
X204668750Y-75406250D01*
X209550000Y-80800000D02*
X209387500Y-80962500D01*
X209550000Y-80287500D02*
X209550000Y-80800000D01*
X209387500Y-80962500D02*
X207168750Y-80962500D01*
X206375000Y-73262500D02*
X206375000Y-74612500D01*
X212325000Y-73262500D02*
X212325000Y-74612500D01*
X213305000Y-73262500D02*
X213675000Y-73632500D01*
X212325000Y-73262500D02*
X213305000Y-73262500D01*
X219337500Y-103112500D02*
X219943750Y-103112500D01*
X219943750Y-103112500D02*
X220662500Y-102393750D01*
X220662500Y-102393750D02*
X220662500Y-94456250D01*
X220662500Y-94456250D02*
X220662500Y-89693750D01*
X219231250Y-92868750D02*
X220662500Y-92868750D01*
X212619000Y-88500000D02*
X213800000Y-88500000D01*
X210750000Y-90369000D02*
X212619000Y-88500000D01*
X210750000Y-93150000D02*
X210750000Y-90369000D01*
X207325000Y-97475000D02*
X207325000Y-96837500D01*
X205581250Y-99218750D02*
X207325000Y-97475000D01*
X201612500Y-99218750D02*
X205581250Y-99218750D01*
X198437500Y-102393750D02*
X201612500Y-99218750D01*
X198437500Y-103756250D02*
X198437500Y-102393750D01*
X200237500Y-105556250D02*
X198437500Y-103756250D01*
X210750000Y-94149574D02*
X210750000Y-93150000D01*
X208062074Y-96837500D02*
X210750000Y-94149574D01*
X207325000Y-96837500D02*
X208062074Y-96837500D01*
X205025000Y-70252500D02*
X205025000Y-73632500D01*
X205395000Y-73262500D02*
X205025000Y-73632500D01*
X206375000Y-73262500D02*
X205395000Y-73262500D01*
X213675000Y-70252500D02*
X213675000Y-73632500D01*
X203081250Y-76993750D02*
X203081250Y-81637500D01*
X217887500Y-88500000D02*
X218437500Y-87950000D01*
X218437500Y-87950000D02*
X218437500Y-86518750D01*
X213800000Y-88500000D02*
X217887500Y-88500000D01*
X219634366Y-86518750D02*
X219751558Y-86401558D01*
X218437500Y-86518750D02*
X219634366Y-86518750D01*
X219075000Y-85725000D02*
X219751558Y-86401558D01*
X219075000Y-80962500D02*
X219075000Y-85725000D01*
X218400000Y-80287500D02*
X219075000Y-80962500D01*
X209550000Y-80287500D02*
X218400000Y-80287500D01*
X199868750Y-81118750D02*
X199868750Y-80931250D01*
X213800000Y-90900000D02*
X214725000Y-90900000D01*
X213800000Y-91700000D02*
X214687500Y-91700000D01*
X214687500Y-91700000D02*
X215106250Y-91281250D01*
X215106250Y-91281250D02*
X214725000Y-90900000D01*
X215743750Y-91281250D02*
X217331250Y-92868750D01*
X215106250Y-91281250D02*
X215743750Y-91281250D01*
X217487500Y-93025000D02*
X217331250Y-92868750D01*
X217487500Y-95250000D02*
X217487500Y-93025000D01*
X219075000Y-91125000D02*
X217331250Y-92868750D01*
X219075000Y-90487500D02*
X219075000Y-91125000D01*
X200818750Y-80168750D02*
X199868750Y-81118750D01*
X200818750Y-79187500D02*
X200818750Y-80168750D01*
X211256250Y-100131250D02*
X213518750Y-100131250D01*
X210343750Y-99218750D02*
X211256250Y-100131250D01*
X205425000Y-96837500D02*
X207012500Y-95250000D01*
X209950000Y-94127902D02*
X209950000Y-93150000D01*
X208827902Y-95250000D02*
X209950000Y-94127902D01*
X207012500Y-95250000D02*
X208827902Y-95250000D01*
X205419157Y-96843343D02*
X205425000Y-96837500D01*
X205419157Y-98262907D02*
X205419157Y-96843343D01*
X210343750Y-99218750D02*
X209550000Y-99218750D01*
X215900000Y-82550000D02*
X217487500Y-84137500D01*
X211931250Y-82550000D02*
X215900000Y-82550000D01*
D21*
X206437500Y-105556250D02*
X206337500Y-105456250D01*
X210237500Y-105556250D02*
X206437500Y-105556250D01*
X210237500Y-105556250D02*
X211150000Y-105556250D01*
X211150000Y-105556250D02*
X211931250Y-104775000D01*
X211931250Y-99218750D02*
X211931250Y-96837500D01*
X212350000Y-96418750D02*
X212350000Y-93150000D01*
X211931250Y-96837500D02*
X212350000Y-96418750D01*
X204037500Y-103656250D02*
X204137500Y-103756250D01*
X200237500Y-103656250D02*
X204037500Y-103656250D01*
X211550000Y-94727732D02*
X211550000Y-93150000D01*
X207962500Y-98315232D02*
X211550000Y-94727732D01*
X207962500Y-100012500D02*
X207962500Y-98315232D01*
X204218750Y-103756250D02*
X207962500Y-100012500D01*
X204137500Y-103756250D02*
X204218750Y-103756250D01*
X213800000Y-87700000D02*
X216306250Y-87700000D01*
X216537500Y-87468750D02*
X216537500Y-86518750D01*
X216306250Y-87700000D02*
X216537500Y-87468750D01*
X137318750Y-73918750D02*
X139375000Y-75975000D01*
X133143750Y-73918750D02*
X137318750Y-73918750D01*
X155943750Y-81756250D02*
X158425000Y-79275000D01*
X158425000Y-79275000D02*
X160237500Y-79275000D01*
X160237500Y-79275000D02*
X162718750Y-81756250D01*
X174993750Y-81756250D02*
X177475000Y-79275000D01*
X162718750Y-81756250D02*
X174993750Y-81756250D01*
X177475000Y-79275000D02*
X179287500Y-79275000D01*
X179287500Y-79275000D02*
X181768750Y-81756250D01*
X194043750Y-81756250D02*
X196525000Y-79275000D01*
X181768750Y-81756250D02*
X194043750Y-81756250D01*
X139375000Y-79275000D02*
X141187500Y-79275000D01*
X143668750Y-81756250D02*
X155943750Y-81756250D01*
X141187500Y-79275000D02*
X143668750Y-81756250D01*
X196525000Y-79275000D02*
X196525000Y-83812500D01*
X196525000Y-83812500D02*
X199231250Y-86518750D01*
X199231250Y-86518750D02*
X200818750Y-86518750D01*
X200818750Y-86518750D02*
X200818750Y-86312497D01*
X204375000Y-86900000D02*
X205300000Y-86900000D01*
X203787497Y-86312497D02*
X204375000Y-86900000D01*
X203200000Y-86312497D02*
X203787497Y-86312497D01*
X137318750Y-92968750D02*
X139375000Y-95025000D01*
X133143750Y-92968750D02*
X137318750Y-92968750D01*
X139375000Y-98325000D02*
X141187500Y-98325000D01*
X141187500Y-98325000D02*
X143668750Y-100806250D01*
X155943750Y-100806250D02*
X158425000Y-98325000D01*
X143668750Y-100806250D02*
X155943750Y-100806250D01*
X158425000Y-98325000D02*
X160237500Y-98325000D01*
X160237500Y-98325000D02*
X162718750Y-100806250D01*
X174993750Y-100806250D02*
X177475000Y-98325000D01*
X162718750Y-100806250D02*
X174993750Y-100806250D01*
X177475000Y-98325000D02*
X179287500Y-98325000D01*
X179287500Y-98325000D02*
X181768750Y-100806250D01*
X194043750Y-100806250D02*
X196525000Y-98325000D01*
X181768750Y-100806250D02*
X194043750Y-100806250D01*
X196525000Y-98325000D02*
X196525000Y-97956250D01*
X202781250Y-91700000D02*
X205300000Y-91700000D01*
X196525000Y-97956250D02*
X202781250Y-91700000D01*
X156368750Y-73918750D02*
X158425000Y-75975000D01*
X152193750Y-73918750D02*
X156368750Y-73918750D01*
X156368750Y-92968750D02*
X158425000Y-95025000D01*
X152193750Y-92968750D02*
X156368750Y-92968750D01*
X175418750Y-73918750D02*
X177475000Y-75975000D01*
X171243750Y-73918750D02*
X175418750Y-73918750D01*
X175418750Y-92968750D02*
X177475000Y-95025000D01*
X171243750Y-92968750D02*
X175418750Y-92968750D01*
X194468750Y-73918750D02*
X196525000Y-75975000D01*
X190913750Y-73918750D02*
X190333750Y-73338750D01*
X194468750Y-73918750D02*
X190913750Y-73918750D01*
X194468750Y-92968750D02*
X196525000Y-95025000D01*
X190293750Y-92968750D02*
X194468750Y-92968750D01*
D20*
X201800000Y-75406250D02*
X200818750Y-76387500D01*
X202406250Y-75406250D02*
X201800000Y-75406250D01*
X207225000Y-75350000D02*
X207225000Y-74612500D01*
X206375000Y-76200000D02*
X207225000Y-75350000D01*
X207225000Y-73262500D02*
X207225000Y-74612500D01*
X211475000Y-75088556D02*
X212586444Y-76200000D01*
X211475000Y-74612500D02*
X211475000Y-75088556D01*
X211475000Y-73262500D02*
X211475000Y-74612500D01*
D21*
X126833750Y-94622500D02*
X134143750Y-87312500D01*
X126833750Y-94928750D02*
X126833750Y-94622500D01*
X134143750Y-87312500D02*
X197954566Y-87312500D01*
X197954566Y-87312500D02*
X200818750Y-87312500D01*
X203587500Y-87700000D02*
X205300000Y-87700000D01*
X203200000Y-87312500D02*
X203587500Y-87700000D01*
X147193750Y-93468750D02*
X152556250Y-88106250D01*
X202806250Y-89300000D02*
X205300000Y-89300000D01*
X201612500Y-88106250D02*
X202806250Y-89300000D01*
X152556250Y-88106250D02*
X201612500Y-88106250D01*
X164933750Y-94928750D02*
X165421250Y-94928750D01*
X164933750Y-94622500D02*
X170656250Y-88900000D01*
X164933750Y-94928750D02*
X164933750Y-94622500D01*
X201612500Y-88900000D02*
X202812500Y-90100000D01*
X202812500Y-90100000D02*
X205300000Y-90100000D01*
X170656250Y-88900000D02*
X201612500Y-88900000D01*
X183983750Y-94622500D02*
X188912500Y-89693750D01*
X183983750Y-94928750D02*
X183983750Y-94622500D01*
X202818750Y-90900000D02*
X205300000Y-90900000D01*
X201612500Y-89693750D02*
X202818750Y-90900000D01*
X188912500Y-89693750D02*
X201612500Y-89693750D01*
X215781250Y-78581250D02*
X215515297Y-78581250D01*
X209775000Y-74764462D02*
X209775000Y-74612500D01*
X209550000Y-74989462D02*
X209775000Y-74764462D01*
X209550000Y-76546310D02*
X209550000Y-74989462D01*
X210451450Y-77447760D02*
X209550000Y-76546310D01*
X214647760Y-77447760D02*
X210451450Y-77447760D01*
X215781250Y-78581250D02*
X214647760Y-77447760D01*
X217081250Y-90100000D02*
X213800000Y-90100000D01*
X220662500Y-86518750D02*
X217081250Y-90100000D01*
X220322760Y-77447760D02*
X220662500Y-77787500D01*
X220662500Y-77787500D02*
X220662500Y-86518750D01*
X218620990Y-77447760D02*
X220322760Y-77447760D01*
X217606250Y-78462500D02*
X218620990Y-77447760D01*
X217606250Y-78581250D02*
X217606250Y-78462500D01*
X214193750Y-76993750D02*
X215781250Y-75406250D01*
X211137500Y-76993750D02*
X214193750Y-76993750D01*
X210300000Y-76156250D02*
X211137500Y-76993750D01*
X208925000Y-74264462D02*
X208925000Y-74612500D01*
X209775000Y-73414462D02*
X208925000Y-74264462D01*
X209775000Y-73262500D02*
X209775000Y-73414462D01*
X210300000Y-76196322D02*
X210287987Y-76208335D01*
X210300000Y-76156250D02*
X210300000Y-76196322D01*
X221456250Y-77787500D02*
X221456250Y-84137500D01*
X219075000Y-76993750D02*
X220662500Y-76993750D01*
X220662500Y-76993750D02*
X221456250Y-77787500D01*
X217606250Y-75525000D02*
X219075000Y-76993750D01*
X217606250Y-75406250D02*
X217606250Y-75525000D01*
X221456250Y-84137500D02*
X221456250Y-86518750D01*
X221456250Y-86518750D02*
X217420990Y-90554010D01*
X217420990Y-90554010D02*
X217269307Y-90554010D01*
X216966740Y-90554010D02*
X216693750Y-90827000D01*
X217269307Y-90554010D02*
X216966740Y-90554010D01*
X213985500Y-89373000D02*
X216693750Y-89373000D01*
X213912500Y-89300000D02*
X213985500Y-89373000D01*
X213800000Y-89300000D02*
X213912500Y-89300000D01*
X213518750Y-98306250D02*
X213637500Y-98306250D01*
X213518750Y-98306250D02*
X213093750Y-97881250D01*
X214912500Y-96912500D02*
X213518750Y-98306250D01*
X215637500Y-96912500D02*
X214912500Y-96912500D01*
X215637500Y-96912500D02*
X215637500Y-93925000D01*
X212634250Y-84365750D02*
X212350000Y-84650000D01*
X215637500Y-84365750D02*
X212634250Y-84365750D01*
X202800000Y-88500000D02*
X205300000Y-88500000D01*
X201612500Y-87312500D02*
X202800000Y-88500000D01*
X201612500Y-83462500D02*
X201612500Y-87312500D01*
X206974000Y-76993750D02*
X204906250Y-76993750D01*
X208075000Y-75892750D02*
X208075000Y-74612500D01*
X206974000Y-76993750D02*
X208075000Y-75892750D01*
X209432808Y-78345308D02*
X209550000Y-78462500D01*
X208756250Y-77668750D02*
X209550000Y-78462500D01*
X208756250Y-76993750D02*
X208756250Y-77668750D01*
X221590000Y-106330220D02*
X221569231Y-106542038D01*
X221517091Y-106714736D01*
X221432399Y-106874018D01*
X221318378Y-107013821D01*
X221179385Y-107128806D01*
X221020695Y-107214610D01*
X220848365Y-107267955D01*
X220638619Y-107290000D01*
X197770750Y-107290000D01*
X197770750Y-106056250D01*
X198874428Y-106056250D01*
X198886688Y-106180732D01*
X198922998Y-106300430D01*
X198981963Y-106410744D01*
X199061315Y-106507435D01*
X199158006Y-106586787D01*
X199268320Y-106645752D01*
X199388018Y-106682062D01*
X199512500Y-106694322D01*
X199951750Y-106691250D01*
X200110500Y-106532500D01*
X200110500Y-105683250D01*
X200364500Y-105683250D01*
X200364500Y-106532500D01*
X200523250Y-106691250D01*
X200962500Y-106694322D01*
X201086982Y-106682062D01*
X201206680Y-106645752D01*
X201316994Y-106586787D01*
X201413685Y-106507435D01*
X201493037Y-106410744D01*
X201552002Y-106300430D01*
X201588312Y-106180732D01*
X201600572Y-106056250D01*
X202799428Y-106056250D01*
X202811688Y-106180732D01*
X202847998Y-106300430D01*
X202906963Y-106410744D01*
X202986315Y-106507435D01*
X203083006Y-106586787D01*
X203193320Y-106645752D01*
X203313018Y-106682062D01*
X203437500Y-106694322D01*
X203851750Y-106691250D01*
X204010500Y-106532500D01*
X204010500Y-105583250D01*
X202961250Y-105583250D01*
X202802500Y-105742000D01*
X202799428Y-106056250D01*
X201600572Y-106056250D01*
X201597500Y-105842000D01*
X201438750Y-105683250D01*
X200364500Y-105683250D01*
X200110500Y-105683250D01*
X199036250Y-105683250D01*
X198877500Y-105842000D01*
X198874428Y-106056250D01*
X197770750Y-106056250D01*
X197770750Y-97788130D01*
X203096880Y-92462000D01*
X204092456Y-92462000D01*
X204145506Y-92505537D01*
X204255820Y-92564502D01*
X204375518Y-92600812D01*
X204500000Y-92613072D01*
X205836928Y-92613072D01*
X205836928Y-93950000D01*
X205849188Y-94074482D01*
X205885498Y-94194180D01*
X205944463Y-94304494D01*
X206023815Y-94401185D01*
X206120506Y-94480537D01*
X206230820Y-94539502D01*
X206350518Y-94575812D01*
X206475000Y-94588072D01*
X206517818Y-94588072D01*
X206515194Y-94590226D01*
X206425959Y-94663459D01*
X206400108Y-94694959D01*
X205620640Y-95474428D01*
X205175000Y-95474428D01*
X205001746Y-95491492D01*
X204835150Y-95542028D01*
X204681614Y-95624095D01*
X204547038Y-95734538D01*
X204436595Y-95869114D01*
X204354528Y-96022650D01*
X204303992Y-96189246D01*
X204286928Y-96362500D01*
X204286928Y-97312500D01*
X204303992Y-97485754D01*
X204354528Y-97652350D01*
X204436595Y-97805886D01*
X204470881Y-97847663D01*
X204423931Y-97961009D01*
X204384157Y-98160968D01*
X204384157Y-98364846D01*
X204423931Y-98564805D01*
X204501952Y-98753163D01*
X204615220Y-98922681D01*
X204759383Y-99066844D01*
X204928901Y-99180112D01*
X205117259Y-99258133D01*
X205317218Y-99297907D01*
X205521096Y-99297907D01*
X205721055Y-99258133D01*
X205909413Y-99180112D01*
X206078931Y-99066844D01*
X206223094Y-98922681D01*
X206336362Y-98753163D01*
X206414383Y-98564805D01*
X206454157Y-98364846D01*
X206454157Y-98160968D01*
X206434819Y-98063750D01*
X206470506Y-98093037D01*
X206580820Y-98152002D01*
X206700518Y-98188312D01*
X206825000Y-98200572D01*
X207039250Y-98197500D01*
X207197998Y-98038752D01*
X207197998Y-98197500D01*
X207208410Y-98197500D01*
X207196814Y-98315232D01*
X207200501Y-98352665D01*
X207200500Y-99696869D01*
X204379192Y-102518178D01*
X203437500Y-102518178D01*
X203313018Y-102530438D01*
X203193320Y-102566748D01*
X203083006Y-102625713D01*
X202986315Y-102705065D01*
X202906963Y-102801756D01*
X202857523Y-102894250D01*
X201435629Y-102894250D01*
X201340462Y-102778288D01*
X201205886Y-102667845D01*
X201052350Y-102585778D01*
X200885754Y-102535242D01*
X200712500Y-102518178D01*
X199762500Y-102518178D01*
X199589246Y-102535242D01*
X199422650Y-102585778D01*
X199269114Y-102667845D01*
X199134538Y-102778288D01*
X199024095Y-102912864D01*
X198942028Y-103066400D01*
X198891492Y-103232996D01*
X198874428Y-103406250D01*
X198874428Y-103906250D01*
X198891492Y-104079504D01*
X198942028Y-104246100D01*
X199024095Y-104399636D01*
X199134538Y-104534212D01*
X199141094Y-104539592D01*
X199061315Y-104605065D01*
X198981963Y-104701756D01*
X198922998Y-104812070D01*
X198886688Y-104931768D01*
X198874428Y-105056250D01*
X198877500Y-105270500D01*
X199036250Y-105429250D01*
X200110500Y-105429250D01*
X200110500Y-105409250D01*
X200364500Y-105409250D01*
X200364500Y-105429250D01*
X201438750Y-105429250D01*
X201597500Y-105270500D01*
X201600572Y-105056250D01*
X201588312Y-104931768D01*
X201552002Y-104812070D01*
X201493037Y-104701756D01*
X201413685Y-104605065D01*
X201333906Y-104539592D01*
X201340462Y-104534212D01*
X201435629Y-104418250D01*
X202805534Y-104418250D01*
X202811688Y-104480732D01*
X202847998Y-104600430D01*
X202851109Y-104606250D01*
X202847998Y-104612070D01*
X202811688Y-104731768D01*
X202799428Y-104856250D01*
X202802500Y-105170500D01*
X202961250Y-105329250D01*
X204010500Y-105329250D01*
X204010500Y-105309250D01*
X204264500Y-105309250D01*
X204264500Y-105329250D01*
X204284500Y-105329250D01*
X204284500Y-105583250D01*
X204264500Y-105583250D01*
X204264500Y-106532500D01*
X204423250Y-106691250D01*
X204837500Y-106694322D01*
X204961982Y-106682062D01*
X205081680Y-106645752D01*
X205191994Y-106586787D01*
X205237500Y-106549441D01*
X205283006Y-106586787D01*
X205393320Y-106645752D01*
X205513018Y-106682062D01*
X205637500Y-106694322D01*
X207037500Y-106694322D01*
X207161982Y-106682062D01*
X207281680Y-106645752D01*
X207391994Y-106586787D01*
X207488685Y-106507435D01*
X207568037Y-106410744D01*
X207617477Y-106318250D01*
X209039371Y-106318250D01*
X209134538Y-106434212D01*
X209269114Y-106544655D01*
X209422650Y-106626722D01*
X209589246Y-106677258D01*
X209762500Y-106694322D01*
X210712500Y-106694322D01*
X210885754Y-106677258D01*
X211052350Y-106626722D01*
X211205886Y-106544655D01*
X211340462Y-106434212D01*
X211450905Y-106299636D01*
X211480988Y-106243355D01*
X211575392Y-106192895D01*
X211691422Y-106097672D01*
X211715284Y-106068597D01*
X211973880Y-105810000D01*
X212033189Y-105810000D01*
X212233148Y-105770226D01*
X212421506Y-105692205D01*
X212591024Y-105578937D01*
X212735187Y-105434774D01*
X212848455Y-105265256D01*
X212926476Y-105076898D01*
X212966250Y-104876939D01*
X212966250Y-104673061D01*
X212926476Y-104473102D01*
X212848455Y-104284744D01*
X212735187Y-104115226D01*
X212591024Y-103971063D01*
X212421506Y-103857795D01*
X212233148Y-103779774D01*
X212033189Y-103740000D01*
X211829311Y-103740000D01*
X211629352Y-103779774D01*
X211492118Y-103836618D01*
X211438750Y-103783250D01*
X210364500Y-103783250D01*
X210364500Y-103803250D01*
X210110500Y-103803250D01*
X210110500Y-103783250D01*
X209036250Y-103783250D01*
X208877500Y-103942000D01*
X208874428Y-104156250D01*
X208886688Y-104280732D01*
X208922998Y-104400430D01*
X208981963Y-104510744D01*
X209061315Y-104607435D01*
X209141094Y-104672908D01*
X209134538Y-104678288D01*
X209039371Y-104794250D01*
X207669466Y-104794250D01*
X207663312Y-104731768D01*
X207627002Y-104612070D01*
X207623891Y-104606250D01*
X207627002Y-104600430D01*
X207663312Y-104480732D01*
X207675572Y-104356250D01*
X207672500Y-104042000D01*
X207513750Y-103883250D01*
X206464500Y-103883250D01*
X206464500Y-103903250D01*
X206210500Y-103903250D01*
X206210500Y-103883250D01*
X206190500Y-103883250D01*
X206190500Y-103629250D01*
X206210500Y-103629250D01*
X206210500Y-103609250D01*
X206464500Y-103609250D01*
X206464500Y-103629250D01*
X207513750Y-103629250D01*
X207672500Y-103470500D01*
X207675572Y-103156250D01*
X208874428Y-103156250D01*
X208877500Y-103370500D01*
X209036250Y-103529250D01*
X210110500Y-103529250D01*
X210110500Y-102680000D01*
X210364500Y-102680000D01*
X210364500Y-103529250D01*
X211438750Y-103529250D01*
X211597500Y-103370500D01*
X211600572Y-103156250D01*
X211588312Y-103031768D01*
X211552002Y-102912070D01*
X211493037Y-102801756D01*
X211413685Y-102705065D01*
X211316994Y-102625713D01*
X211206680Y-102566748D01*
X211086982Y-102530438D01*
X210962500Y-102518178D01*
X210523250Y-102521250D01*
X210364500Y-102680000D01*
X210110500Y-102680000D01*
X209951750Y-102521250D01*
X209512500Y-102518178D01*
X209388018Y-102530438D01*
X209268320Y-102566748D01*
X209158006Y-102625713D01*
X209061315Y-102705065D01*
X208981963Y-102801756D01*
X208922998Y-102912070D01*
X208886688Y-103031768D01*
X208874428Y-103156250D01*
X207675572Y-103156250D01*
X207663312Y-103031768D01*
X207627002Y-102912070D01*
X207568037Y-102801756D01*
X207488685Y-102705065D01*
X207391994Y-102625713D01*
X207281680Y-102566748D01*
X207161982Y-102530438D01*
X207037500Y-102518178D01*
X206623250Y-102521250D01*
X206464502Y-102679998D01*
X206464502Y-102588128D01*
X206840130Y-102212500D01*
X214449428Y-102212500D01*
X214449428Y-104012500D01*
X214461688Y-104136982D01*
X214497998Y-104256680D01*
X214556963Y-104366994D01*
X214636315Y-104463685D01*
X214733006Y-104543037D01*
X214843320Y-104602002D01*
X214963018Y-104638312D01*
X215087500Y-104650572D01*
X216187500Y-104650572D01*
X216311982Y-104638312D01*
X216431680Y-104602002D01*
X216541994Y-104543037D01*
X216638685Y-104463685D01*
X216718037Y-104366994D01*
X216777002Y-104256680D01*
X216813312Y-104136982D01*
X216825572Y-104012500D01*
X218149428Y-104012500D01*
X218161688Y-104136982D01*
X218197998Y-104256680D01*
X218256963Y-104366994D01*
X218336315Y-104463685D01*
X218433006Y-104543037D01*
X218543320Y-104602002D01*
X218663018Y-104638312D01*
X218787500Y-104650572D01*
X219051750Y-104647500D01*
X219210500Y-104488750D01*
X219210500Y-103239500D01*
X219464500Y-103239500D01*
X219464500Y-104488750D01*
X219623250Y-104647500D01*
X219887500Y-104650572D01*
X220011982Y-104638312D01*
X220131680Y-104602002D01*
X220241994Y-104543037D01*
X220338685Y-104463685D01*
X220418037Y-104366994D01*
X220477002Y-104256680D01*
X220513312Y-104136982D01*
X220525572Y-104012500D01*
X220522500Y-103398250D01*
X220363750Y-103239500D01*
X219464500Y-103239500D01*
X219210500Y-103239500D01*
X218311250Y-103239500D01*
X218152500Y-103398250D01*
X218149428Y-104012500D01*
X216825572Y-104012500D01*
X216825572Y-102212500D01*
X218149428Y-102212500D01*
X218152500Y-102826750D01*
X218311250Y-102985500D01*
X219210500Y-102985500D01*
X219210500Y-101736250D01*
X219464500Y-101736250D01*
X219464500Y-102985500D01*
X220363750Y-102985500D01*
X220522500Y-102826750D01*
X220525572Y-102212500D01*
X220513312Y-102088018D01*
X220477002Y-101968320D01*
X220418037Y-101858006D01*
X220338685Y-101761315D01*
X220241994Y-101681963D01*
X220131680Y-101622998D01*
X220011982Y-101586688D01*
X219887500Y-101574428D01*
X219623250Y-101577500D01*
X219464500Y-101736250D01*
X219210500Y-101736250D01*
X219051750Y-101577500D01*
X218787500Y-101574428D01*
X218663018Y-101586688D01*
X218543320Y-101622998D01*
X218433006Y-101681963D01*
X218336315Y-101761315D01*
X218256963Y-101858006D01*
X218197998Y-101968320D01*
X218161688Y-102088018D01*
X218149428Y-102212500D01*
X216825572Y-102212500D01*
X216813312Y-102088018D01*
X216777002Y-101968320D01*
X216718037Y-101858006D01*
X216638685Y-101761315D01*
X216541994Y-101681963D01*
X216431680Y-101622998D01*
X216311982Y-101586688D01*
X216187500Y-101574428D01*
X215087500Y-101574428D01*
X214963018Y-101586688D01*
X214843320Y-101622998D01*
X214733006Y-101681963D01*
X214636315Y-101761315D01*
X214556963Y-101858006D01*
X214497998Y-101968320D01*
X214461688Y-102088018D01*
X214449428Y-102212500D01*
X206840130Y-102212500D01*
X208474853Y-100577778D01*
X208503922Y-100553922D01*
X208599145Y-100437892D01*
X208669902Y-100305515D01*
X208713474Y-100161878D01*
X208724500Y-100049926D01*
X208724500Y-100049924D01*
X208728186Y-100012501D01*
X208724500Y-99975078D01*
X208724500Y-99846253D01*
X208746063Y-99878524D01*
X208890226Y-100022687D01*
X209059744Y-100135955D01*
X209248102Y-100213976D01*
X209448061Y-100253750D01*
X209651939Y-100253750D01*
X209851898Y-100213976D01*
X210040256Y-100135955D01*
X210072187Y-100114620D01*
X210643861Y-100686294D01*
X210669709Y-100717791D01*
X210701205Y-100743639D01*
X210701208Y-100743642D01*
X210795407Y-100820949D01*
X210919236Y-100887137D01*
X210938816Y-100897603D01*
X211094424Y-100944806D01*
X211215697Y-100956750D01*
X211215699Y-100956750D01*
X211256250Y-100960744D01*
X211296800Y-100956750D01*
X212387475Y-100956750D01*
X212440788Y-101021712D01*
X212575363Y-101132155D01*
X212728899Y-101214222D01*
X212895495Y-101264758D01*
X213068749Y-101281822D01*
X213968751Y-101281822D01*
X214142005Y-101264758D01*
X214308601Y-101214222D01*
X214462137Y-101132155D01*
X214596712Y-101021712D01*
X214707155Y-100887137D01*
X214789222Y-100733601D01*
X214839758Y-100567005D01*
X214856822Y-100393751D01*
X214856822Y-99868749D01*
X214839758Y-99695495D01*
X214789222Y-99528899D01*
X214707155Y-99375363D01*
X214596712Y-99240788D01*
X214569859Y-99218750D01*
X214596712Y-99196712D01*
X214707155Y-99062137D01*
X214789222Y-98908601D01*
X214839758Y-98742005D01*
X214856822Y-98568751D01*
X214856822Y-98406098D01*
X214963018Y-98438312D01*
X215087500Y-98450572D01*
X216187500Y-98450572D01*
X216311982Y-98438312D01*
X216431680Y-98402002D01*
X216541994Y-98343037D01*
X216638685Y-98263685D01*
X216718037Y-98166994D01*
X216777002Y-98056680D01*
X216813312Y-97936982D01*
X216825572Y-97812500D01*
X216825572Y-96051783D01*
X216827726Y-96053937D01*
X216997244Y-96167205D01*
X217185602Y-96245226D01*
X217385561Y-96285000D01*
X217589439Y-96285000D01*
X217789398Y-96245226D01*
X217977756Y-96167205D01*
X218147274Y-96053937D01*
X218149428Y-96051783D01*
X218149428Y-97812500D01*
X218161688Y-97936982D01*
X218197998Y-98056680D01*
X218256963Y-98166994D01*
X218336315Y-98263685D01*
X218433006Y-98343037D01*
X218543320Y-98402002D01*
X218663018Y-98438312D01*
X218787500Y-98450572D01*
X219887500Y-98450572D01*
X220011982Y-98438312D01*
X220131680Y-98402002D01*
X220241994Y-98343037D01*
X220338685Y-98263685D01*
X220418037Y-98166994D01*
X220477002Y-98056680D01*
X220513312Y-97936982D01*
X220525572Y-97812500D01*
X220525572Y-96012500D01*
X220513312Y-95888018D01*
X220477002Y-95768320D01*
X220418037Y-95658006D01*
X220338685Y-95561315D01*
X220241994Y-95481963D01*
X220131680Y-95422998D01*
X220011982Y-95386688D01*
X219887500Y-95374428D01*
X218787500Y-95374428D01*
X218663018Y-95386688D01*
X218543320Y-95422998D01*
X218504207Y-95443905D01*
X218522500Y-95351939D01*
X218522500Y-95148061D01*
X218482726Y-94948102D01*
X218404705Y-94759744D01*
X218313000Y-94622497D01*
X218313000Y-94071964D01*
X218376756Y-94124287D01*
X218487070Y-94183252D01*
X218606768Y-94219562D01*
X218731250Y-94231822D01*
X218945500Y-94228750D01*
X219104250Y-94070000D01*
X219104250Y-92995750D01*
X219358250Y-92995750D01*
X219358250Y-94070000D01*
X219517000Y-94228750D01*
X219731250Y-94231822D01*
X219855732Y-94219562D01*
X219975430Y-94183252D01*
X220085744Y-94124287D01*
X220182435Y-94044935D01*
X220261787Y-93948244D01*
X220320752Y-93837930D01*
X220357062Y-93718232D01*
X220369322Y-93593750D01*
X220366250Y-93154500D01*
X220207500Y-92995750D01*
X219358250Y-92995750D01*
X219104250Y-92995750D01*
X219084250Y-92995750D01*
X219084250Y-92741750D01*
X219104250Y-92741750D01*
X219104250Y-92721750D01*
X219358250Y-92721750D01*
X219358250Y-92741750D01*
X220207500Y-92741750D01*
X220366250Y-92583000D01*
X220369322Y-92143750D01*
X220357062Y-92019268D01*
X220320752Y-91899570D01*
X220261787Y-91789256D01*
X220182435Y-91692565D01*
X220085744Y-91613213D01*
X219975430Y-91554248D01*
X219855732Y-91517938D01*
X219803733Y-91512817D01*
X219841353Y-91442434D01*
X219841660Y-91441421D01*
X219888556Y-91286826D01*
X219900500Y-91165553D01*
X219900500Y-91165551D01*
X219904494Y-91125000D01*
X219903123Y-91111077D01*
X219992205Y-90977756D01*
X220070226Y-90789398D01*
X220110000Y-90589439D01*
X220110000Y-90385561D01*
X220070226Y-90185602D01*
X219992205Y-89997244D01*
X219878937Y-89827726D01*
X219734774Y-89683563D01*
X219565256Y-89570295D01*
X219506622Y-89546008D01*
X221590001Y-87462630D01*
X221590000Y-106330220D01*
G04 #@! TA.AperFunction,Conductor*
D22*
G36*
X221590000Y-106330220D02*
G01*
X221569231Y-106542038D01*
X221517091Y-106714736D01*
X221432399Y-106874018D01*
X221318378Y-107013821D01*
X221179385Y-107128806D01*
X221020695Y-107214610D01*
X220848365Y-107267955D01*
X220638619Y-107290000D01*
X197770750Y-107290000D01*
X197770750Y-106056250D01*
X198874428Y-106056250D01*
X198886688Y-106180732D01*
X198922998Y-106300430D01*
X198981963Y-106410744D01*
X199061315Y-106507435D01*
X199158006Y-106586787D01*
X199268320Y-106645752D01*
X199388018Y-106682062D01*
X199512500Y-106694322D01*
X199951750Y-106691250D01*
X200110500Y-106532500D01*
X200110500Y-105683250D01*
X200364500Y-105683250D01*
X200364500Y-106532500D01*
X200523250Y-106691250D01*
X200962500Y-106694322D01*
X201086982Y-106682062D01*
X201206680Y-106645752D01*
X201316994Y-106586787D01*
X201413685Y-106507435D01*
X201493037Y-106410744D01*
X201552002Y-106300430D01*
X201588312Y-106180732D01*
X201600572Y-106056250D01*
X202799428Y-106056250D01*
X202811688Y-106180732D01*
X202847998Y-106300430D01*
X202906963Y-106410744D01*
X202986315Y-106507435D01*
X203083006Y-106586787D01*
X203193320Y-106645752D01*
X203313018Y-106682062D01*
X203437500Y-106694322D01*
X203851750Y-106691250D01*
X204010500Y-106532500D01*
X204010500Y-105583250D01*
X202961250Y-105583250D01*
X202802500Y-105742000D01*
X202799428Y-106056250D01*
X201600572Y-106056250D01*
X201597500Y-105842000D01*
X201438750Y-105683250D01*
X200364500Y-105683250D01*
X200110500Y-105683250D01*
X199036250Y-105683250D01*
X198877500Y-105842000D01*
X198874428Y-106056250D01*
X197770750Y-106056250D01*
X197770750Y-97788130D01*
X203096880Y-92462000D01*
X204092456Y-92462000D01*
X204145506Y-92505537D01*
X204255820Y-92564502D01*
X204375518Y-92600812D01*
X204500000Y-92613072D01*
X205836928Y-92613072D01*
X205836928Y-93950000D01*
X205849188Y-94074482D01*
X205885498Y-94194180D01*
X205944463Y-94304494D01*
X206023815Y-94401185D01*
X206120506Y-94480537D01*
X206230820Y-94539502D01*
X206350518Y-94575812D01*
X206475000Y-94588072D01*
X206517818Y-94588072D01*
X206515194Y-94590226D01*
X206425959Y-94663459D01*
X206400108Y-94694959D01*
X205620640Y-95474428D01*
X205175000Y-95474428D01*
X205001746Y-95491492D01*
X204835150Y-95542028D01*
X204681614Y-95624095D01*
X204547038Y-95734538D01*
X204436595Y-95869114D01*
X204354528Y-96022650D01*
X204303992Y-96189246D01*
X204286928Y-96362500D01*
X204286928Y-97312500D01*
X204303992Y-97485754D01*
X204354528Y-97652350D01*
X204436595Y-97805886D01*
X204470881Y-97847663D01*
X204423931Y-97961009D01*
X204384157Y-98160968D01*
X204384157Y-98364846D01*
X204423931Y-98564805D01*
X204501952Y-98753163D01*
X204615220Y-98922681D01*
X204759383Y-99066844D01*
X204928901Y-99180112D01*
X205117259Y-99258133D01*
X205317218Y-99297907D01*
X205521096Y-99297907D01*
X205721055Y-99258133D01*
X205909413Y-99180112D01*
X206078931Y-99066844D01*
X206223094Y-98922681D01*
X206336362Y-98753163D01*
X206414383Y-98564805D01*
X206454157Y-98364846D01*
X206454157Y-98160968D01*
X206434819Y-98063750D01*
X206470506Y-98093037D01*
X206580820Y-98152002D01*
X206700518Y-98188312D01*
X206825000Y-98200572D01*
X207039250Y-98197500D01*
X207197998Y-98038752D01*
X207197998Y-98197500D01*
X207208410Y-98197500D01*
X207196814Y-98315232D01*
X207200501Y-98352665D01*
X207200500Y-99696869D01*
X204379192Y-102518178D01*
X203437500Y-102518178D01*
X203313018Y-102530438D01*
X203193320Y-102566748D01*
X203083006Y-102625713D01*
X202986315Y-102705065D01*
X202906963Y-102801756D01*
X202857523Y-102894250D01*
X201435629Y-102894250D01*
X201340462Y-102778288D01*
X201205886Y-102667845D01*
X201052350Y-102585778D01*
X200885754Y-102535242D01*
X200712500Y-102518178D01*
X199762500Y-102518178D01*
X199589246Y-102535242D01*
X199422650Y-102585778D01*
X199269114Y-102667845D01*
X199134538Y-102778288D01*
X199024095Y-102912864D01*
X198942028Y-103066400D01*
X198891492Y-103232996D01*
X198874428Y-103406250D01*
X198874428Y-103906250D01*
X198891492Y-104079504D01*
X198942028Y-104246100D01*
X199024095Y-104399636D01*
X199134538Y-104534212D01*
X199141094Y-104539592D01*
X199061315Y-104605065D01*
X198981963Y-104701756D01*
X198922998Y-104812070D01*
X198886688Y-104931768D01*
X198874428Y-105056250D01*
X198877500Y-105270500D01*
X199036250Y-105429250D01*
X200110500Y-105429250D01*
X200110500Y-105409250D01*
X200364500Y-105409250D01*
X200364500Y-105429250D01*
X201438750Y-105429250D01*
X201597500Y-105270500D01*
X201600572Y-105056250D01*
X201588312Y-104931768D01*
X201552002Y-104812070D01*
X201493037Y-104701756D01*
X201413685Y-104605065D01*
X201333906Y-104539592D01*
X201340462Y-104534212D01*
X201435629Y-104418250D01*
X202805534Y-104418250D01*
X202811688Y-104480732D01*
X202847998Y-104600430D01*
X202851109Y-104606250D01*
X202847998Y-104612070D01*
X202811688Y-104731768D01*
X202799428Y-104856250D01*
X202802500Y-105170500D01*
X202961250Y-105329250D01*
X204010500Y-105329250D01*
X204010500Y-105309250D01*
X204264500Y-105309250D01*
X204264500Y-105329250D01*
X204284500Y-105329250D01*
X204284500Y-105583250D01*
X204264500Y-105583250D01*
X204264500Y-106532500D01*
X204423250Y-106691250D01*
X204837500Y-106694322D01*
X204961982Y-106682062D01*
X205081680Y-106645752D01*
X205191994Y-106586787D01*
X205237500Y-106549441D01*
X205283006Y-106586787D01*
X205393320Y-106645752D01*
X205513018Y-106682062D01*
X205637500Y-106694322D01*
X207037500Y-106694322D01*
X207161982Y-106682062D01*
X207281680Y-106645752D01*
X207391994Y-106586787D01*
X207488685Y-106507435D01*
X207568037Y-106410744D01*
X207617477Y-106318250D01*
X209039371Y-106318250D01*
X209134538Y-106434212D01*
X209269114Y-106544655D01*
X209422650Y-106626722D01*
X209589246Y-106677258D01*
X209762500Y-106694322D01*
X210712500Y-106694322D01*
X210885754Y-106677258D01*
X211052350Y-106626722D01*
X211205886Y-106544655D01*
X211340462Y-106434212D01*
X211450905Y-106299636D01*
X211480988Y-106243355D01*
X211575392Y-106192895D01*
X211691422Y-106097672D01*
X211715284Y-106068597D01*
X211973880Y-105810000D01*
X212033189Y-105810000D01*
X212233148Y-105770226D01*
X212421506Y-105692205D01*
X212591024Y-105578937D01*
X212735187Y-105434774D01*
X212848455Y-105265256D01*
X212926476Y-105076898D01*
X212966250Y-104876939D01*
X212966250Y-104673061D01*
X212926476Y-104473102D01*
X212848455Y-104284744D01*
X212735187Y-104115226D01*
X212591024Y-103971063D01*
X212421506Y-103857795D01*
X212233148Y-103779774D01*
X212033189Y-103740000D01*
X211829311Y-103740000D01*
X211629352Y-103779774D01*
X211492118Y-103836618D01*
X211438750Y-103783250D01*
X210364500Y-103783250D01*
X210364500Y-103803250D01*
X210110500Y-103803250D01*
X210110500Y-103783250D01*
X209036250Y-103783250D01*
X208877500Y-103942000D01*
X208874428Y-104156250D01*
X208886688Y-104280732D01*
X208922998Y-104400430D01*
X208981963Y-104510744D01*
X209061315Y-104607435D01*
X209141094Y-104672908D01*
X209134538Y-104678288D01*
X209039371Y-104794250D01*
X207669466Y-104794250D01*
X207663312Y-104731768D01*
X207627002Y-104612070D01*
X207623891Y-104606250D01*
X207627002Y-104600430D01*
X207663312Y-104480732D01*
X207675572Y-104356250D01*
X207672500Y-104042000D01*
X207513750Y-103883250D01*
X206464500Y-103883250D01*
X206464500Y-103903250D01*
X206210500Y-103903250D01*
X206210500Y-103883250D01*
X206190500Y-103883250D01*
X206190500Y-103629250D01*
X206210500Y-103629250D01*
X206210500Y-103609250D01*
X206464500Y-103609250D01*
X206464500Y-103629250D01*
X207513750Y-103629250D01*
X207672500Y-103470500D01*
X207675572Y-103156250D01*
X208874428Y-103156250D01*
X208877500Y-103370500D01*
X209036250Y-103529250D01*
X210110500Y-103529250D01*
X210110500Y-102680000D01*
X210364500Y-102680000D01*
X210364500Y-103529250D01*
X211438750Y-103529250D01*
X211597500Y-103370500D01*
X211600572Y-103156250D01*
X211588312Y-103031768D01*
X211552002Y-102912070D01*
X211493037Y-102801756D01*
X211413685Y-102705065D01*
X211316994Y-102625713D01*
X211206680Y-102566748D01*
X211086982Y-102530438D01*
X210962500Y-102518178D01*
X210523250Y-102521250D01*
X210364500Y-102680000D01*
X210110500Y-102680000D01*
X209951750Y-102521250D01*
X209512500Y-102518178D01*
X209388018Y-102530438D01*
X209268320Y-102566748D01*
X209158006Y-102625713D01*
X209061315Y-102705065D01*
X208981963Y-102801756D01*
X208922998Y-102912070D01*
X208886688Y-103031768D01*
X208874428Y-103156250D01*
X207675572Y-103156250D01*
X207663312Y-103031768D01*
X207627002Y-102912070D01*
X207568037Y-102801756D01*
X207488685Y-102705065D01*
X207391994Y-102625713D01*
X207281680Y-102566748D01*
X207161982Y-102530438D01*
X207037500Y-102518178D01*
X206623250Y-102521250D01*
X206464502Y-102679998D01*
X206464502Y-102588128D01*
X206840130Y-102212500D01*
X214449428Y-102212500D01*
X214449428Y-104012500D01*
X214461688Y-104136982D01*
X214497998Y-104256680D01*
X214556963Y-104366994D01*
X214636315Y-104463685D01*
X214733006Y-104543037D01*
X214843320Y-104602002D01*
X214963018Y-104638312D01*
X215087500Y-104650572D01*
X216187500Y-104650572D01*
X216311982Y-104638312D01*
X216431680Y-104602002D01*
X216541994Y-104543037D01*
X216638685Y-104463685D01*
X216718037Y-104366994D01*
X216777002Y-104256680D01*
X216813312Y-104136982D01*
X216825572Y-104012500D01*
X218149428Y-104012500D01*
X218161688Y-104136982D01*
X218197998Y-104256680D01*
X218256963Y-104366994D01*
X218336315Y-104463685D01*
X218433006Y-104543037D01*
X218543320Y-104602002D01*
X218663018Y-104638312D01*
X218787500Y-104650572D01*
X219051750Y-104647500D01*
X219210500Y-104488750D01*
X219210500Y-103239500D01*
X219464500Y-103239500D01*
X219464500Y-104488750D01*
X219623250Y-104647500D01*
X219887500Y-104650572D01*
X220011982Y-104638312D01*
X220131680Y-104602002D01*
X220241994Y-104543037D01*
X220338685Y-104463685D01*
X220418037Y-104366994D01*
X220477002Y-104256680D01*
X220513312Y-104136982D01*
X220525572Y-104012500D01*
X220522500Y-103398250D01*
X220363750Y-103239500D01*
X219464500Y-103239500D01*
X219210500Y-103239500D01*
X218311250Y-103239500D01*
X218152500Y-103398250D01*
X218149428Y-104012500D01*
X216825572Y-104012500D01*
X216825572Y-102212500D01*
X218149428Y-102212500D01*
X218152500Y-102826750D01*
X218311250Y-102985500D01*
X219210500Y-102985500D01*
X219210500Y-101736250D01*
X219464500Y-101736250D01*
X219464500Y-102985500D01*
X220363750Y-102985500D01*
X220522500Y-102826750D01*
X220525572Y-102212500D01*
X220513312Y-102088018D01*
X220477002Y-101968320D01*
X220418037Y-101858006D01*
X220338685Y-101761315D01*
X220241994Y-101681963D01*
X220131680Y-101622998D01*
X220011982Y-101586688D01*
X219887500Y-101574428D01*
X219623250Y-101577500D01*
X219464500Y-101736250D01*
X219210500Y-101736250D01*
X219051750Y-101577500D01*
X218787500Y-101574428D01*
X218663018Y-101586688D01*
X218543320Y-101622998D01*
X218433006Y-101681963D01*
X218336315Y-101761315D01*
X218256963Y-101858006D01*
X218197998Y-101968320D01*
X218161688Y-102088018D01*
X218149428Y-102212500D01*
X216825572Y-102212500D01*
X216813312Y-102088018D01*
X216777002Y-101968320D01*
X216718037Y-101858006D01*
X216638685Y-101761315D01*
X216541994Y-101681963D01*
X216431680Y-101622998D01*
X216311982Y-101586688D01*
X216187500Y-101574428D01*
X215087500Y-101574428D01*
X214963018Y-101586688D01*
X214843320Y-101622998D01*
X214733006Y-101681963D01*
X214636315Y-101761315D01*
X214556963Y-101858006D01*
X214497998Y-101968320D01*
X214461688Y-102088018D01*
X214449428Y-102212500D01*
X206840130Y-102212500D01*
X208474853Y-100577778D01*
X208503922Y-100553922D01*
X208599145Y-100437892D01*
X208669902Y-100305515D01*
X208713474Y-100161878D01*
X208724500Y-100049926D01*
X208724500Y-100049924D01*
X208728186Y-100012501D01*
X208724500Y-99975078D01*
X208724500Y-99846253D01*
X208746063Y-99878524D01*
X208890226Y-100022687D01*
X209059744Y-100135955D01*
X209248102Y-100213976D01*
X209448061Y-100253750D01*
X209651939Y-100253750D01*
X209851898Y-100213976D01*
X210040256Y-100135955D01*
X210072187Y-100114620D01*
X210643861Y-100686294D01*
X210669709Y-100717791D01*
X210701205Y-100743639D01*
X210701208Y-100743642D01*
X210795407Y-100820949D01*
X210919236Y-100887137D01*
X210938816Y-100897603D01*
X211094424Y-100944806D01*
X211215697Y-100956750D01*
X211215699Y-100956750D01*
X211256250Y-100960744D01*
X211296800Y-100956750D01*
X212387475Y-100956750D01*
X212440788Y-101021712D01*
X212575363Y-101132155D01*
X212728899Y-101214222D01*
X212895495Y-101264758D01*
X213068749Y-101281822D01*
X213968751Y-101281822D01*
X214142005Y-101264758D01*
X214308601Y-101214222D01*
X214462137Y-101132155D01*
X214596712Y-101021712D01*
X214707155Y-100887137D01*
X214789222Y-100733601D01*
X214839758Y-100567005D01*
X214856822Y-100393751D01*
X214856822Y-99868749D01*
X214839758Y-99695495D01*
X214789222Y-99528899D01*
X214707155Y-99375363D01*
X214596712Y-99240788D01*
X214569859Y-99218750D01*
X214596712Y-99196712D01*
X214707155Y-99062137D01*
X214789222Y-98908601D01*
X214839758Y-98742005D01*
X214856822Y-98568751D01*
X214856822Y-98406098D01*
X214963018Y-98438312D01*
X215087500Y-98450572D01*
X216187500Y-98450572D01*
X216311982Y-98438312D01*
X216431680Y-98402002D01*
X216541994Y-98343037D01*
X216638685Y-98263685D01*
X216718037Y-98166994D01*
X216777002Y-98056680D01*
X216813312Y-97936982D01*
X216825572Y-97812500D01*
X216825572Y-96051783D01*
X216827726Y-96053937D01*
X216997244Y-96167205D01*
X217185602Y-96245226D01*
X217385561Y-96285000D01*
X217589439Y-96285000D01*
X217789398Y-96245226D01*
X217977756Y-96167205D01*
X218147274Y-96053937D01*
X218149428Y-96051783D01*
X218149428Y-97812500D01*
X218161688Y-97936982D01*
X218197998Y-98056680D01*
X218256963Y-98166994D01*
X218336315Y-98263685D01*
X218433006Y-98343037D01*
X218543320Y-98402002D01*
X218663018Y-98438312D01*
X218787500Y-98450572D01*
X219887500Y-98450572D01*
X220011982Y-98438312D01*
X220131680Y-98402002D01*
X220241994Y-98343037D01*
X220338685Y-98263685D01*
X220418037Y-98166994D01*
X220477002Y-98056680D01*
X220513312Y-97936982D01*
X220525572Y-97812500D01*
X220525572Y-96012500D01*
X220513312Y-95888018D01*
X220477002Y-95768320D01*
X220418037Y-95658006D01*
X220338685Y-95561315D01*
X220241994Y-95481963D01*
X220131680Y-95422998D01*
X220011982Y-95386688D01*
X219887500Y-95374428D01*
X218787500Y-95374428D01*
X218663018Y-95386688D01*
X218543320Y-95422998D01*
X218504207Y-95443905D01*
X218522500Y-95351939D01*
X218522500Y-95148061D01*
X218482726Y-94948102D01*
X218404705Y-94759744D01*
X218313000Y-94622497D01*
X218313000Y-94071964D01*
X218376756Y-94124287D01*
X218487070Y-94183252D01*
X218606768Y-94219562D01*
X218731250Y-94231822D01*
X218945500Y-94228750D01*
X219104250Y-94070000D01*
X219104250Y-92995750D01*
X219358250Y-92995750D01*
X219358250Y-94070000D01*
X219517000Y-94228750D01*
X219731250Y-94231822D01*
X219855732Y-94219562D01*
X219975430Y-94183252D01*
X220085744Y-94124287D01*
X220182435Y-94044935D01*
X220261787Y-93948244D01*
X220320752Y-93837930D01*
X220357062Y-93718232D01*
X220369322Y-93593750D01*
X220366250Y-93154500D01*
X220207500Y-92995750D01*
X219358250Y-92995750D01*
X219104250Y-92995750D01*
X219084250Y-92995750D01*
X219084250Y-92741750D01*
X219104250Y-92741750D01*
X219104250Y-92721750D01*
X219358250Y-92721750D01*
X219358250Y-92741750D01*
X220207500Y-92741750D01*
X220366250Y-92583000D01*
X220369322Y-92143750D01*
X220357062Y-92019268D01*
X220320752Y-91899570D01*
X220261787Y-91789256D01*
X220182435Y-91692565D01*
X220085744Y-91613213D01*
X219975430Y-91554248D01*
X219855732Y-91517938D01*
X219803733Y-91512817D01*
X219841353Y-91442434D01*
X219841660Y-91441421D01*
X219888556Y-91286826D01*
X219900500Y-91165553D01*
X219900500Y-91165551D01*
X219904494Y-91125000D01*
X219903123Y-91111077D01*
X219992205Y-90977756D01*
X220070226Y-90789398D01*
X220110000Y-90589439D01*
X220110000Y-90385561D01*
X220070226Y-90185602D01*
X219992205Y-89997244D01*
X219878937Y-89827726D01*
X219734774Y-89683563D01*
X219565256Y-89570295D01*
X219506622Y-89546008D01*
X221590001Y-87462630D01*
X221590000Y-106330220D01*
G37*
G04 #@! TD.AperFunction*
D21*
X207452000Y-96710500D02*
X207472000Y-96710500D01*
X207472000Y-96964500D01*
X207452000Y-96964500D01*
X207452000Y-96984500D01*
X207198000Y-96984500D01*
X207198000Y-96964500D01*
X207178000Y-96964500D01*
X207178000Y-96710500D01*
X207198000Y-96710500D01*
X207198000Y-96690500D01*
X207452000Y-96690500D01*
X207452000Y-96710500D01*
G04 #@! TA.AperFunction,Conductor*
D22*
G36*
X207452000Y-96710500D02*
G01*
X207472000Y-96710500D01*
X207472000Y-96964500D01*
X207452000Y-96964500D01*
X207452000Y-96984500D01*
X207198000Y-96984500D01*
X207198000Y-96964500D01*
X207178000Y-96964500D01*
X207178000Y-96710500D01*
X207198000Y-96710500D01*
X207198000Y-96690500D01*
X207452000Y-96690500D01*
X207452000Y-96710500D01*
G37*
G04 #@! TD.AperFunction*
D21*
X211950518Y-86075812D02*
X212075000Y-86088072D01*
X212361928Y-86088072D01*
X212361928Y-86375000D01*
X212374188Y-86499482D01*
X212374345Y-86500000D01*
X212374188Y-86500518D01*
X212361928Y-86625000D01*
X212361928Y-87175000D01*
X212374188Y-87299482D01*
X212374345Y-87300000D01*
X212374188Y-87300518D01*
X212361928Y-87425000D01*
X212361928Y-87975000D01*
X212374188Y-88099482D01*
X212374533Y-88100620D01*
X212365000Y-88214250D01*
X212457083Y-88306333D01*
X212469463Y-88329494D01*
X212548815Y-88426185D01*
X212638759Y-88500000D01*
X212548815Y-88573815D01*
X212469463Y-88670506D01*
X212457083Y-88693667D01*
X212365000Y-88785750D01*
X212374533Y-88899380D01*
X212374188Y-88900518D01*
X212361928Y-89025000D01*
X212361928Y-89575000D01*
X212374188Y-89699482D01*
X212374345Y-89700000D01*
X212374188Y-89700518D01*
X212361928Y-89825000D01*
X212361928Y-90375000D01*
X212374188Y-90499482D01*
X212374345Y-90500000D01*
X212374188Y-90500518D01*
X212361928Y-90625000D01*
X212361928Y-91175000D01*
X212374188Y-91299482D01*
X212374345Y-91300000D01*
X212374188Y-91300518D01*
X212361928Y-91425000D01*
X212361928Y-91711928D01*
X212075000Y-91711928D01*
X211950518Y-91724188D01*
X211950000Y-91724345D01*
X211949482Y-91724188D01*
X211825000Y-91711928D01*
X211275000Y-91711928D01*
X211150518Y-91724188D01*
X211149380Y-91724533D01*
X211035750Y-91715000D01*
X210943667Y-91807083D01*
X210920506Y-91819463D01*
X210823815Y-91898815D01*
X210750000Y-91988759D01*
X210676185Y-91898815D01*
X210579494Y-91819463D01*
X210556333Y-91807083D01*
X210464250Y-91715000D01*
X210350620Y-91724533D01*
X210349482Y-91724188D01*
X210225000Y-91711928D01*
X209675000Y-91711928D01*
X209550518Y-91724188D01*
X209550000Y-91724345D01*
X209549482Y-91724188D01*
X209425000Y-91711928D01*
X208875000Y-91711928D01*
X208750518Y-91724188D01*
X208750000Y-91724345D01*
X208749482Y-91724188D01*
X208625000Y-91711928D01*
X208075000Y-91711928D01*
X207950518Y-91724188D01*
X207950000Y-91724345D01*
X207949482Y-91724188D01*
X207825000Y-91711928D01*
X207275000Y-91711928D01*
X207150518Y-91724188D01*
X207150000Y-91724345D01*
X207149482Y-91724188D01*
X207025000Y-91711928D01*
X206738072Y-91711928D01*
X206738072Y-91425000D01*
X206725812Y-91300518D01*
X206725655Y-91300000D01*
X206725812Y-91299482D01*
X206738072Y-91175000D01*
X206738072Y-90625000D01*
X206725812Y-90500518D01*
X206725655Y-90500000D01*
X206725812Y-90499482D01*
X206738072Y-90375000D01*
X206738072Y-89825000D01*
X206725812Y-89700518D01*
X206725655Y-89700000D01*
X206725812Y-89699482D01*
X206738072Y-89575000D01*
X206738072Y-89025000D01*
X206725812Y-88900518D01*
X206725655Y-88900000D01*
X206725812Y-88899482D01*
X206738072Y-88775000D01*
X206738072Y-88225000D01*
X206725812Y-88100518D01*
X206725655Y-88100000D01*
X206725812Y-88099482D01*
X206738072Y-87975000D01*
X206738072Y-87425000D01*
X206725812Y-87300518D01*
X206725655Y-87300000D01*
X206725812Y-87299482D01*
X206738072Y-87175000D01*
X206738072Y-86625000D01*
X206725812Y-86500518D01*
X206725655Y-86500000D01*
X206725812Y-86499482D01*
X206738072Y-86375000D01*
X206738072Y-86088072D01*
X207025000Y-86088072D01*
X207149482Y-86075812D01*
X207150000Y-86075655D01*
X207150518Y-86075812D01*
X207275000Y-86088072D01*
X207825000Y-86088072D01*
X207949482Y-86075812D01*
X207950000Y-86075655D01*
X207950518Y-86075812D01*
X208075000Y-86088072D01*
X208625000Y-86088072D01*
X208749482Y-86075812D01*
X208750000Y-86075655D01*
X208750518Y-86075812D01*
X208875000Y-86088072D01*
X209425000Y-86088072D01*
X209549482Y-86075812D01*
X209550000Y-86075655D01*
X209550518Y-86075812D01*
X209675000Y-86088072D01*
X210225000Y-86088072D01*
X210349482Y-86075812D01*
X210350000Y-86075655D01*
X210350518Y-86075812D01*
X210475000Y-86088072D01*
X211025000Y-86088072D01*
X211149482Y-86075812D01*
X211150000Y-86075655D01*
X211150518Y-86075812D01*
X211275000Y-86088072D01*
X211825000Y-86088072D01*
X211949482Y-86075812D01*
X211950000Y-86075655D01*
X211950518Y-86075812D01*
G04 #@! TA.AperFunction,Conductor*
D22*
G36*
X211950518Y-86075812D02*
G01*
X212075000Y-86088072D01*
X212361928Y-86088072D01*
X212361928Y-86375000D01*
X212374188Y-86499482D01*
X212374345Y-86500000D01*
X212374188Y-86500518D01*
X212361928Y-86625000D01*
X212361928Y-87175000D01*
X212374188Y-87299482D01*
X212374345Y-87300000D01*
X212374188Y-87300518D01*
X212361928Y-87425000D01*
X212361928Y-87975000D01*
X212374188Y-88099482D01*
X212374533Y-88100620D01*
X212365000Y-88214250D01*
X212457083Y-88306333D01*
X212469463Y-88329494D01*
X212548815Y-88426185D01*
X212638759Y-88500000D01*
X212548815Y-88573815D01*
X212469463Y-88670506D01*
X212457083Y-88693667D01*
X212365000Y-88785750D01*
X212374533Y-88899380D01*
X212374188Y-88900518D01*
X212361928Y-89025000D01*
X212361928Y-89575000D01*
X212374188Y-89699482D01*
X212374345Y-89700000D01*
X212374188Y-89700518D01*
X212361928Y-89825000D01*
X212361928Y-90375000D01*
X212374188Y-90499482D01*
X212374345Y-90500000D01*
X212374188Y-90500518D01*
X212361928Y-90625000D01*
X212361928Y-91175000D01*
X212374188Y-91299482D01*
X212374345Y-91300000D01*
X212374188Y-91300518D01*
X212361928Y-91425000D01*
X212361928Y-91711928D01*
X212075000Y-91711928D01*
X211950518Y-91724188D01*
X211950000Y-91724345D01*
X211949482Y-91724188D01*
X211825000Y-91711928D01*
X211275000Y-91711928D01*
X211150518Y-91724188D01*
X211149380Y-91724533D01*
X211035750Y-91715000D01*
X210943667Y-91807083D01*
X210920506Y-91819463D01*
X210823815Y-91898815D01*
X210750000Y-91988759D01*
X210676185Y-91898815D01*
X210579494Y-91819463D01*
X210556333Y-91807083D01*
X210464250Y-91715000D01*
X210350620Y-91724533D01*
X210349482Y-91724188D01*
X210225000Y-91711928D01*
X209675000Y-91711928D01*
X209550518Y-91724188D01*
X209550000Y-91724345D01*
X209549482Y-91724188D01*
X209425000Y-91711928D01*
X208875000Y-91711928D01*
X208750518Y-91724188D01*
X208750000Y-91724345D01*
X208749482Y-91724188D01*
X208625000Y-91711928D01*
X208075000Y-91711928D01*
X207950518Y-91724188D01*
X207950000Y-91724345D01*
X207949482Y-91724188D01*
X207825000Y-91711928D01*
X207275000Y-91711928D01*
X207150518Y-91724188D01*
X207150000Y-91724345D01*
X207149482Y-91724188D01*
X207025000Y-91711928D01*
X206738072Y-91711928D01*
X206738072Y-91425000D01*
X206725812Y-91300518D01*
X206725655Y-91300000D01*
X206725812Y-91299482D01*
X206738072Y-91175000D01*
X206738072Y-90625000D01*
X206725812Y-90500518D01*
X206725655Y-90500000D01*
X206725812Y-90499482D01*
X206738072Y-90375000D01*
X206738072Y-89825000D01*
X206725812Y-89700518D01*
X206725655Y-89700000D01*
X206725812Y-89699482D01*
X206738072Y-89575000D01*
X206738072Y-89025000D01*
X206725812Y-88900518D01*
X206725655Y-88900000D01*
X206725812Y-88899482D01*
X206738072Y-88775000D01*
X206738072Y-88225000D01*
X206725812Y-88100518D01*
X206725655Y-88100000D01*
X206725812Y-88099482D01*
X206738072Y-87975000D01*
X206738072Y-87425000D01*
X206725812Y-87300518D01*
X206725655Y-87300000D01*
X206725812Y-87299482D01*
X206738072Y-87175000D01*
X206738072Y-86625000D01*
X206725812Y-86500518D01*
X206725655Y-86500000D01*
X206725812Y-86499482D01*
X206738072Y-86375000D01*
X206738072Y-86088072D01*
X207025000Y-86088072D01*
X207149482Y-86075812D01*
X207150000Y-86075655D01*
X207150518Y-86075812D01*
X207275000Y-86088072D01*
X207825000Y-86088072D01*
X207949482Y-86075812D01*
X207950000Y-86075655D01*
X207950518Y-86075812D01*
X208075000Y-86088072D01*
X208625000Y-86088072D01*
X208749482Y-86075812D01*
X208750000Y-86075655D01*
X208750518Y-86075812D01*
X208875000Y-86088072D01*
X209425000Y-86088072D01*
X209549482Y-86075812D01*
X209550000Y-86075655D01*
X209550518Y-86075812D01*
X209675000Y-86088072D01*
X210225000Y-86088072D01*
X210349482Y-86075812D01*
X210350000Y-86075655D01*
X210350518Y-86075812D01*
X210475000Y-86088072D01*
X211025000Y-86088072D01*
X211149482Y-86075812D01*
X211150000Y-86075655D01*
X211150518Y-86075812D01*
X211275000Y-86088072D01*
X211825000Y-86088072D01*
X211949482Y-86075812D01*
X211950000Y-86075655D01*
X211950518Y-86075812D01*
G37*
G04 #@! TD.AperFunction*
D21*
X204347592Y-68995486D02*
X204193413Y-69144109D01*
X204071191Y-69319955D01*
X203985624Y-69516267D01*
X203940000Y-69725500D01*
X203940000Y-70125500D01*
X204898000Y-70125500D01*
X204898000Y-70105500D01*
X205152000Y-70105500D01*
X205152000Y-70125500D01*
X206110000Y-70125500D01*
X206110000Y-69725500D01*
X206064376Y-69516267D01*
X205978809Y-69319955D01*
X205856587Y-69144109D01*
X205702408Y-68995486D01*
X205588715Y-68922500D01*
X213111285Y-68922500D01*
X212997592Y-68995486D01*
X212843413Y-69144109D01*
X212721191Y-69319955D01*
X212635624Y-69516267D01*
X212590000Y-69725500D01*
X212590000Y-70125500D01*
X213548000Y-70125500D01*
X213548000Y-70105500D01*
X213802000Y-70105500D01*
X213802000Y-70125500D01*
X214760000Y-70125500D01*
X214760000Y-69725500D01*
X214714376Y-69516267D01*
X214628809Y-69319955D01*
X214506587Y-69144109D01*
X214352408Y-68995486D01*
X214238715Y-68922500D01*
X220630221Y-68922500D01*
X220842038Y-68943269D01*
X221014737Y-68995410D01*
X221174018Y-69080102D01*
X221313819Y-69194119D01*
X221428808Y-69333117D01*
X221514610Y-69491805D01*
X221567955Y-69664135D01*
X221590001Y-69873890D01*
X221590001Y-76843620D01*
X221227784Y-76481403D01*
X221203922Y-76452328D01*
X221087892Y-76357105D01*
X220955515Y-76286348D01*
X220811878Y-76242776D01*
X220699926Y-76231750D01*
X220699923Y-76231750D01*
X220662500Y-76228064D01*
X220625077Y-76231750D01*
X219390631Y-76231750D01*
X218756822Y-75597942D01*
X218756822Y-74956249D01*
X218739758Y-74782995D01*
X218689222Y-74616399D01*
X218607155Y-74462863D01*
X218496712Y-74328288D01*
X218362137Y-74217845D01*
X218208601Y-74135778D01*
X218042005Y-74085242D01*
X217868751Y-74068178D01*
X217343749Y-74068178D01*
X217170495Y-74085242D01*
X217003899Y-74135778D01*
X216850363Y-74217845D01*
X216715788Y-74328288D01*
X216693750Y-74355141D01*
X216671712Y-74328288D01*
X216537137Y-74217845D01*
X216383601Y-74135778D01*
X216217005Y-74085242D01*
X216043751Y-74068178D01*
X215518749Y-74068178D01*
X215345495Y-74085242D01*
X215178899Y-74135778D01*
X215025363Y-74217845D01*
X214890788Y-74328288D01*
X214780345Y-74462863D01*
X214760000Y-74500926D01*
X214760000Y-73759500D01*
X213802000Y-73759500D01*
X213802000Y-75300002D01*
X213969001Y-75426908D01*
X214172197Y-75355202D01*
X214352408Y-75239514D01*
X214506587Y-75090891D01*
X214628809Y-74915045D01*
X214636467Y-74897477D01*
X214630678Y-74956249D01*
X214630678Y-75479191D01*
X213878120Y-76231750D01*
X213621444Y-76231750D01*
X213621444Y-76098061D01*
X213581670Y-75898102D01*
X213503649Y-75709744D01*
X213390381Y-75540226D01*
X213246218Y-75396063D01*
X213193193Y-75360633D01*
X213380999Y-75426908D01*
X213548000Y-75300002D01*
X213548000Y-73759500D01*
X213001608Y-73759500D01*
X212995520Y-73753412D01*
X213193767Y-73736716D01*
X213269589Y-73558116D01*
X213280536Y-73505500D01*
X213548000Y-73505500D01*
X213548000Y-71964998D01*
X213802000Y-71964998D01*
X213802000Y-73505500D01*
X214760000Y-73505500D01*
X214760000Y-72755500D01*
X214714376Y-72546267D01*
X214628809Y-72349955D01*
X214506587Y-72174109D01*
X214352408Y-72025486D01*
X214172197Y-71909798D01*
X213969001Y-71838092D01*
X213802000Y-71964998D01*
X213548000Y-71964998D01*
X213380999Y-71838092D01*
X213177803Y-71909798D01*
X212997592Y-72025486D01*
X212843413Y-72174109D01*
X212721191Y-72349955D01*
X212717272Y-72358945D01*
X212620616Y-72317911D01*
X212430656Y-72278390D01*
X212236636Y-72276687D01*
X212046011Y-72312868D01*
X211899349Y-72372115D01*
X211762314Y-72315353D01*
X211572014Y-72277500D01*
X211377986Y-72277500D01*
X211187686Y-72315353D01*
X211050000Y-72372384D01*
X210912314Y-72315353D01*
X210722014Y-72277500D01*
X210527986Y-72277500D01*
X210337686Y-72315353D01*
X210200000Y-72372384D01*
X210062314Y-72315353D01*
X209872014Y-72277500D01*
X209677986Y-72277500D01*
X209487686Y-72315353D01*
X209350000Y-72372384D01*
X209212314Y-72315353D01*
X209022014Y-72277500D01*
X208827986Y-72277500D01*
X208637686Y-72315353D01*
X208500000Y-72372384D01*
X208362314Y-72315353D01*
X208172014Y-72277500D01*
X207977986Y-72277500D01*
X207787686Y-72315353D01*
X207650000Y-72372384D01*
X207512314Y-72315353D01*
X207322014Y-72277500D01*
X207127986Y-72277500D01*
X206937686Y-72315353D01*
X206799458Y-72372609D01*
X206670616Y-72317911D01*
X206480656Y-72278390D01*
X206286636Y-72276687D01*
X206096011Y-72312868D01*
X205982611Y-72358678D01*
X205978809Y-72349955D01*
X205856587Y-72174109D01*
X205702408Y-72025486D01*
X205522197Y-71909798D01*
X205319001Y-71838092D01*
X205152000Y-71964998D01*
X205152000Y-73505500D01*
X205418537Y-73505500D01*
X205425368Y-73541489D01*
X205498043Y-73721393D01*
X205506233Y-73736716D01*
X205704480Y-73753412D01*
X205698392Y-73759500D01*
X205152000Y-73759500D01*
X205152000Y-75300002D01*
X205319001Y-75426908D01*
X205522197Y-75355202D01*
X205702408Y-75239514D01*
X205856587Y-75090891D01*
X205978809Y-74915045D01*
X206045225Y-74762670D01*
X206195395Y-74612500D01*
X206181253Y-74598358D01*
X206240000Y-74539610D01*
X206240000Y-74709514D01*
X206276101Y-74891004D01*
X205884088Y-75283017D01*
X205884105Y-75283222D01*
X205715226Y-75396063D01*
X205571063Y-75540226D01*
X205458838Y-75708183D01*
X205342005Y-75672742D01*
X205168751Y-75655678D01*
X204643749Y-75655678D01*
X204470495Y-75672742D01*
X204303899Y-75723278D01*
X204150363Y-75805345D01*
X204069113Y-75872026D01*
X204044935Y-75842565D01*
X203948244Y-75763213D01*
X203837930Y-75704248D01*
X203718232Y-75667938D01*
X203593750Y-75655678D01*
X203411422Y-75658148D01*
X203441250Y-75508189D01*
X203441250Y-75304311D01*
X203401476Y-75104352D01*
X203323455Y-74915994D01*
X203210187Y-74746476D01*
X203066024Y-74602313D01*
X202896506Y-74489045D01*
X202708148Y-74411024D01*
X202508189Y-74371250D01*
X202304311Y-74371250D01*
X202104352Y-74411024D01*
X201915994Y-74489045D01*
X201782084Y-74578521D01*
X201759449Y-74580750D01*
X201759447Y-74580750D01*
X201638174Y-74592694D01*
X201482566Y-74639897D01*
X201339157Y-74716551D01*
X201302694Y-74746476D01*
X201213459Y-74819709D01*
X201187606Y-74851211D01*
X200914389Y-75124428D01*
X200193750Y-75124428D01*
X200020496Y-75141492D01*
X199853900Y-75192028D01*
X199700364Y-75274095D01*
X199565788Y-75384538D01*
X199455345Y-75519114D01*
X199373278Y-75672650D01*
X199322742Y-75839246D01*
X199305678Y-76012500D01*
X199305678Y-76762500D01*
X199322742Y-76935754D01*
X199373278Y-77102350D01*
X199455345Y-77255886D01*
X199565788Y-77390462D01*
X199700364Y-77500905D01*
X199853900Y-77582972D01*
X200020496Y-77633508D01*
X200193750Y-77650572D01*
X201443750Y-77650572D01*
X201617004Y-77633508D01*
X201783600Y-77582972D01*
X201932088Y-77503603D01*
X201930678Y-77693750D01*
X201942938Y-77818232D01*
X201979248Y-77937930D01*
X202038213Y-78048244D01*
X202117565Y-78144935D01*
X202214256Y-78224287D01*
X202324570Y-78283252D01*
X202444268Y-78319562D01*
X202568750Y-78331822D01*
X202795500Y-78328750D01*
X202954250Y-78170000D01*
X202954250Y-77120750D01*
X202934250Y-77120750D01*
X202934250Y-76866750D01*
X202954250Y-76866750D01*
X202954250Y-76846750D01*
X203208250Y-76846750D01*
X203208250Y-76866750D01*
X203228250Y-76866750D01*
X203228250Y-77120750D01*
X203208250Y-77120750D01*
X203208250Y-78170000D01*
X203367000Y-78328750D01*
X203593750Y-78331822D01*
X203718232Y-78319562D01*
X203837930Y-78283252D01*
X203948244Y-78224287D01*
X204044935Y-78144935D01*
X204069113Y-78115474D01*
X204150363Y-78182155D01*
X204303899Y-78264222D01*
X204470495Y-78314758D01*
X204643749Y-78331822D01*
X205168751Y-78331822D01*
X205342005Y-78314758D01*
X205508601Y-78264222D01*
X205662137Y-78182155D01*
X205796712Y-78071712D01*
X205907155Y-77937137D01*
X205989222Y-77783601D01*
X205997670Y-77755750D01*
X206936577Y-77755750D01*
X206974000Y-77759436D01*
X207011423Y-77755750D01*
X207011426Y-77755750D01*
X207123378Y-77744724D01*
X207267015Y-77701152D01*
X207399392Y-77630395D01*
X207515422Y-77535172D01*
X207539284Y-77506096D01*
X207759151Y-77286230D01*
X207761024Y-77295648D01*
X207839045Y-77484006D01*
X207952313Y-77653524D01*
X207993080Y-77694291D01*
X207994250Y-77706173D01*
X207994250Y-77706176D01*
X208005276Y-77818128D01*
X208045325Y-77950148D01*
X208048849Y-77961765D01*
X208119605Y-78094142D01*
X208181437Y-78169484D01*
X208211928Y-78206637D01*
X208211928Y-78725001D01*
X208228992Y-78898255D01*
X208279528Y-79064851D01*
X208361595Y-79218387D01*
X208428276Y-79299637D01*
X208398815Y-79323815D01*
X208319463Y-79420506D01*
X208260498Y-79530820D01*
X208224188Y-79650518D01*
X208211928Y-79775000D01*
X208215000Y-80001750D01*
X208373750Y-80160500D01*
X209423000Y-80160500D01*
X209423000Y-80140500D01*
X209677000Y-80140500D01*
X209677000Y-80160500D01*
X210726250Y-80160500D01*
X210885000Y-80001750D01*
X210888072Y-79775000D01*
X210875812Y-79650518D01*
X210839502Y-79530820D01*
X210780537Y-79420506D01*
X210701185Y-79323815D01*
X210671724Y-79299637D01*
X210738405Y-79218387D01*
X210820472Y-79064851D01*
X210871008Y-78898255D01*
X210888072Y-78725001D01*
X210888072Y-78209760D01*
X214332130Y-78209760D01*
X214630678Y-78508308D01*
X214630678Y-79031251D01*
X214647742Y-79204505D01*
X214698278Y-79371101D01*
X214780345Y-79524637D01*
X214890788Y-79659212D01*
X215025363Y-79769655D01*
X215178899Y-79851722D01*
X215345495Y-79902258D01*
X215518749Y-79919322D01*
X216043751Y-79919322D01*
X216217005Y-79902258D01*
X216383601Y-79851722D01*
X216537137Y-79769655D01*
X216671712Y-79659212D01*
X216693750Y-79632359D01*
X216715788Y-79659212D01*
X216850363Y-79769655D01*
X217003899Y-79851722D01*
X217170495Y-79902258D01*
X217343749Y-79919322D01*
X217868751Y-79919322D01*
X218042005Y-79902258D01*
X218208601Y-79851722D01*
X218362137Y-79769655D01*
X218496712Y-79659212D01*
X218607155Y-79524637D01*
X218689222Y-79371101D01*
X218739758Y-79204505D01*
X218756822Y-79031251D01*
X218756822Y-78389559D01*
X218936621Y-78209760D01*
X219900500Y-78209760D01*
X219900501Y-86203118D01*
X219435810Y-86667810D01*
X219413750Y-86645750D01*
X218564500Y-86645750D01*
X218564500Y-86665750D01*
X218310500Y-86665750D01*
X218310500Y-86645750D01*
X218290500Y-86645750D01*
X218290500Y-86391750D01*
X218310500Y-86391750D01*
X218310500Y-85317500D01*
X218564500Y-85317500D01*
X218564500Y-86391750D01*
X219413750Y-86391750D01*
X219572500Y-86233000D01*
X219575572Y-85793750D01*
X219563312Y-85669268D01*
X219527002Y-85549570D01*
X219468037Y-85439256D01*
X219388685Y-85342565D01*
X219291994Y-85263213D01*
X219181680Y-85204248D01*
X219061982Y-85167938D01*
X218937500Y-85155678D01*
X218723250Y-85158750D01*
X218564500Y-85317500D01*
X218310500Y-85317500D01*
X218151750Y-85158750D01*
X217937500Y-85155678D01*
X217813018Y-85167938D01*
X217693320Y-85204248D01*
X217583006Y-85263213D01*
X217486315Y-85342565D01*
X217420842Y-85422344D01*
X217415462Y-85415788D01*
X217280886Y-85305345D01*
X217127350Y-85223278D01*
X216960754Y-85172742D01*
X216787500Y-85155678D01*
X216311283Y-85155678D01*
X216441437Y-85025524D01*
X216554705Y-84856006D01*
X216619035Y-84700701D01*
X216683563Y-84797274D01*
X216827726Y-84941437D01*
X216997244Y-85054705D01*
X217185602Y-85132726D01*
X217385561Y-85172500D01*
X217589439Y-85172500D01*
X217789398Y-85132726D01*
X217977756Y-85054705D01*
X218147274Y-84941437D01*
X218291437Y-84797274D01*
X218404705Y-84627756D01*
X218482726Y-84439398D01*
X218522500Y-84239439D01*
X218522500Y-84035561D01*
X218482726Y-83835602D01*
X218404705Y-83647244D01*
X218291437Y-83477726D01*
X218147274Y-83333563D01*
X217977756Y-83220295D01*
X217789398Y-83142274D01*
X217627504Y-83110072D01*
X216512398Y-81994966D01*
X216486541Y-81963459D01*
X216360842Y-81860301D01*
X216217434Y-81783647D01*
X216061826Y-81736444D01*
X215940553Y-81724500D01*
X215940550Y-81724500D01*
X215900000Y-81720506D01*
X215859450Y-81724500D01*
X212558753Y-81724500D01*
X212421506Y-81632795D01*
X212233148Y-81554774D01*
X212033189Y-81515000D01*
X211829311Y-81515000D01*
X211629352Y-81554774D01*
X211440994Y-81632795D01*
X211271476Y-81746063D01*
X211127313Y-81890226D01*
X211014045Y-82059744D01*
X210936024Y-82248102D01*
X210896250Y-82448061D01*
X210896250Y-82651939D01*
X210936024Y-82851898D01*
X211014045Y-83040256D01*
X211127313Y-83209774D01*
X211140880Y-83223341D01*
X211025000Y-83211928D01*
X210475000Y-83211928D01*
X210350518Y-83224188D01*
X210350000Y-83224345D01*
X210349482Y-83224188D01*
X210225000Y-83211928D01*
X209675000Y-83211928D01*
X209550518Y-83224188D01*
X209550000Y-83224345D01*
X209549482Y-83224188D01*
X209425000Y-83211928D01*
X208875000Y-83211928D01*
X208750518Y-83224188D01*
X208750000Y-83224345D01*
X208749482Y-83224188D01*
X208625000Y-83211928D01*
X208075000Y-83211928D01*
X207950518Y-83224188D01*
X207950000Y-83224345D01*
X207949482Y-83224188D01*
X207825000Y-83211928D01*
X207275000Y-83211928D01*
X207150518Y-83224188D01*
X207150000Y-83224345D01*
X207149482Y-83224188D01*
X207025000Y-83211928D01*
X206475000Y-83211928D01*
X206350518Y-83224188D01*
X206230820Y-83260498D01*
X206120506Y-83319463D01*
X206023815Y-83398815D01*
X205944463Y-83495506D01*
X205885498Y-83605820D01*
X205849188Y-83725518D01*
X205836928Y-83850000D01*
X205836928Y-85186928D01*
X204500000Y-85186928D01*
X204375518Y-85199188D01*
X204255820Y-85235498D01*
X204145506Y-85294463D01*
X204048815Y-85373815D01*
X203969463Y-85470506D01*
X203921616Y-85560020D01*
X203910100Y-85558886D01*
X203859774Y-85508560D01*
X203690256Y-85395292D01*
X203501898Y-85317271D01*
X203301939Y-85277497D01*
X203098061Y-85277497D01*
X202898102Y-85317271D01*
X202709744Y-85395292D01*
X202540226Y-85508560D01*
X202396063Y-85652723D01*
X202374500Y-85684994D01*
X202374500Y-84553920D01*
X202402351Y-84545472D01*
X202555887Y-84463405D01*
X202690462Y-84352962D01*
X202800905Y-84218387D01*
X202882972Y-84064851D01*
X202933508Y-83898255D01*
X202950572Y-83725001D01*
X202950572Y-83199999D01*
X202933508Y-83026745D01*
X202882972Y-82860149D01*
X202800905Y-82706613D01*
X202734224Y-82625363D01*
X202763685Y-82601185D01*
X202843037Y-82504494D01*
X202902002Y-82394180D01*
X202938312Y-82274482D01*
X202950572Y-82150000D01*
X202947500Y-81923250D01*
X202788750Y-81764500D01*
X201739500Y-81764500D01*
X201739500Y-81784500D01*
X201485500Y-81784500D01*
X201485500Y-81764500D01*
X201465500Y-81764500D01*
X201465500Y-81510500D01*
X201485500Y-81510500D01*
X201485500Y-80657556D01*
X201492727Y-80648750D01*
X201739500Y-80648750D01*
X201739500Y-81510500D01*
X202788750Y-81510500D01*
X202947500Y-81351750D01*
X202950572Y-81125000D01*
X202938312Y-81000518D01*
X202902002Y-80880820D01*
X202858803Y-80800000D01*
X208211928Y-80800000D01*
X208224188Y-80924482D01*
X208260498Y-81044180D01*
X208319463Y-81154494D01*
X208398815Y-81251185D01*
X208495506Y-81330537D01*
X208605820Y-81389502D01*
X208725518Y-81425812D01*
X208850000Y-81438072D01*
X209264250Y-81435000D01*
X209423000Y-81276250D01*
X209423000Y-80414500D01*
X209677000Y-80414500D01*
X209677000Y-81276250D01*
X209835750Y-81435000D01*
X210250000Y-81438072D01*
X210374482Y-81425812D01*
X210494180Y-81389502D01*
X210604494Y-81330537D01*
X210701185Y-81251185D01*
X210780537Y-81154494D01*
X210839502Y-81044180D01*
X210875812Y-80924482D01*
X210888072Y-80800000D01*
X210885000Y-80573250D01*
X210726250Y-80414500D01*
X209677000Y-80414500D01*
X209423000Y-80414500D01*
X208373750Y-80414500D01*
X208215000Y-80573250D01*
X208211928Y-80800000D01*
X202858803Y-80800000D01*
X202843037Y-80770506D01*
X202763685Y-80673815D01*
X202666994Y-80594463D01*
X202556680Y-80535498D01*
X202436982Y-80499188D01*
X202312500Y-80486928D01*
X201898250Y-80490000D01*
X201739500Y-80648750D01*
X201492727Y-80648750D01*
X201508449Y-80629593D01*
X201585103Y-80486184D01*
X201600591Y-80435124D01*
X201617004Y-80433508D01*
X201783600Y-80382972D01*
X201937136Y-80300905D01*
X202071712Y-80190462D01*
X202182155Y-80055886D01*
X202264222Y-79902350D01*
X202314758Y-79735754D01*
X202331822Y-79562500D01*
X202331822Y-78812500D01*
X202314758Y-78639246D01*
X202264222Y-78472650D01*
X202182155Y-78319114D01*
X202071712Y-78184538D01*
X201937136Y-78074095D01*
X201783600Y-77992028D01*
X201617004Y-77941492D01*
X201443750Y-77924428D01*
X200193750Y-77924428D01*
X200020496Y-77941492D01*
X199853900Y-77992028D01*
X199700364Y-78074095D01*
X199565788Y-78184538D01*
X199455345Y-78319114D01*
X199373278Y-78472650D01*
X199322742Y-78639246D01*
X199305678Y-78812500D01*
X199305678Y-79562500D01*
X199322742Y-79735754D01*
X199373278Y-79902350D01*
X199455345Y-80055886D01*
X199525060Y-80140835D01*
X199378494Y-80201545D01*
X199208976Y-80314813D01*
X199064813Y-80458976D01*
X198951545Y-80628494D01*
X198873524Y-80816852D01*
X198833750Y-81016811D01*
X198833750Y-81220689D01*
X198873524Y-81420648D01*
X198951545Y-81609006D01*
X199064813Y-81778524D01*
X199208976Y-81922687D01*
X199378494Y-82035955D01*
X199566852Y-82113976D01*
X199766811Y-82153750D01*
X199970689Y-82153750D01*
X200170648Y-82113976D01*
X200275504Y-82070543D01*
X200274428Y-82150000D01*
X200286688Y-82274482D01*
X200322998Y-82394180D01*
X200381963Y-82504494D01*
X200461315Y-82601185D01*
X200490776Y-82625363D01*
X200424095Y-82706613D01*
X200342028Y-82860149D01*
X200291492Y-83026745D01*
X200274428Y-83199999D01*
X200274428Y-83725001D01*
X200291492Y-83898255D01*
X200342028Y-84064851D01*
X200424095Y-84218387D01*
X200534538Y-84352962D01*
X200669113Y-84463405D01*
X200822649Y-84545472D01*
X200850500Y-84553921D01*
X200850500Y-85277497D01*
X200716811Y-85277497D01*
X200516852Y-85317271D01*
X200328494Y-85395292D01*
X200158976Y-85508560D01*
X200014813Y-85652723D01*
X199945305Y-85756750D01*
X199546881Y-85756750D01*
X197770750Y-83980620D01*
X197770750Y-73759500D01*
X203940000Y-73759500D01*
X203940000Y-74509500D01*
X203985624Y-74718733D01*
X204071191Y-74915045D01*
X204193413Y-75090891D01*
X204347592Y-75239514D01*
X204527803Y-75355202D01*
X204730999Y-75426908D01*
X204898000Y-75300002D01*
X204898000Y-73759500D01*
X203940000Y-73759500D01*
X197770750Y-73759500D01*
X197770750Y-72755500D01*
X203940000Y-72755500D01*
X203940000Y-73505500D01*
X204898000Y-73505500D01*
X204898000Y-71964998D01*
X204730999Y-71838092D01*
X204527803Y-71909798D01*
X204347592Y-72025486D01*
X204193413Y-72174109D01*
X204071191Y-72349955D01*
X203985624Y-72546267D01*
X203940000Y-72755500D01*
X197770750Y-72755500D01*
X197770750Y-70379500D01*
X203940000Y-70379500D01*
X203940000Y-70779500D01*
X203985624Y-70988733D01*
X204071191Y-71185045D01*
X204193413Y-71360891D01*
X204347592Y-71509514D01*
X204527803Y-71625202D01*
X204730999Y-71696908D01*
X204898000Y-71570002D01*
X204898000Y-70379500D01*
X205152000Y-70379500D01*
X205152000Y-71570002D01*
X205319001Y-71696908D01*
X205522197Y-71625202D01*
X205702408Y-71509514D01*
X205856587Y-71360891D01*
X205978809Y-71185045D01*
X206064376Y-70988733D01*
X206110000Y-70779500D01*
X206110000Y-70379500D01*
X212590000Y-70379500D01*
X212590000Y-70779500D01*
X212635624Y-70988733D01*
X212721191Y-71185045D01*
X212843413Y-71360891D01*
X212997592Y-71509514D01*
X213177803Y-71625202D01*
X213380999Y-71696908D01*
X213548000Y-71570002D01*
X213548000Y-70379500D01*
X213802000Y-70379500D01*
X213802000Y-71570002D01*
X213969001Y-71696908D01*
X214172197Y-71625202D01*
X214352408Y-71509514D01*
X214506587Y-71360891D01*
X214628809Y-71185045D01*
X214714376Y-70988733D01*
X214760000Y-70779500D01*
X214760000Y-70379500D01*
X213802000Y-70379500D01*
X213548000Y-70379500D01*
X212590000Y-70379500D01*
X206110000Y-70379500D01*
X205152000Y-70379500D01*
X204898000Y-70379500D01*
X203940000Y-70379500D01*
X197770750Y-70379500D01*
X197770750Y-68922500D01*
X204461285Y-68922500D01*
X204347592Y-68995486D01*
G04 #@! TA.AperFunction,Conductor*
D22*
G36*
X204347592Y-68995486D02*
G01*
X204193413Y-69144109D01*
X204071191Y-69319955D01*
X203985624Y-69516267D01*
X203940000Y-69725500D01*
X203940000Y-70125500D01*
X204898000Y-70125500D01*
X204898000Y-70105500D01*
X205152000Y-70105500D01*
X205152000Y-70125500D01*
X206110000Y-70125500D01*
X206110000Y-69725500D01*
X206064376Y-69516267D01*
X205978809Y-69319955D01*
X205856587Y-69144109D01*
X205702408Y-68995486D01*
X205588715Y-68922500D01*
X213111285Y-68922500D01*
X212997592Y-68995486D01*
X212843413Y-69144109D01*
X212721191Y-69319955D01*
X212635624Y-69516267D01*
X212590000Y-69725500D01*
X212590000Y-70125500D01*
X213548000Y-70125500D01*
X213548000Y-70105500D01*
X213802000Y-70105500D01*
X213802000Y-70125500D01*
X214760000Y-70125500D01*
X214760000Y-69725500D01*
X214714376Y-69516267D01*
X214628809Y-69319955D01*
X214506587Y-69144109D01*
X214352408Y-68995486D01*
X214238715Y-68922500D01*
X220630221Y-68922500D01*
X220842038Y-68943269D01*
X221014737Y-68995410D01*
X221174018Y-69080102D01*
X221313819Y-69194119D01*
X221428808Y-69333117D01*
X221514610Y-69491805D01*
X221567955Y-69664135D01*
X221590001Y-69873890D01*
X221590001Y-76843620D01*
X221227784Y-76481403D01*
X221203922Y-76452328D01*
X221087892Y-76357105D01*
X220955515Y-76286348D01*
X220811878Y-76242776D01*
X220699926Y-76231750D01*
X220699923Y-76231750D01*
X220662500Y-76228064D01*
X220625077Y-76231750D01*
X219390631Y-76231750D01*
X218756822Y-75597942D01*
X218756822Y-74956249D01*
X218739758Y-74782995D01*
X218689222Y-74616399D01*
X218607155Y-74462863D01*
X218496712Y-74328288D01*
X218362137Y-74217845D01*
X218208601Y-74135778D01*
X218042005Y-74085242D01*
X217868751Y-74068178D01*
X217343749Y-74068178D01*
X217170495Y-74085242D01*
X217003899Y-74135778D01*
X216850363Y-74217845D01*
X216715788Y-74328288D01*
X216693750Y-74355141D01*
X216671712Y-74328288D01*
X216537137Y-74217845D01*
X216383601Y-74135778D01*
X216217005Y-74085242D01*
X216043751Y-74068178D01*
X215518749Y-74068178D01*
X215345495Y-74085242D01*
X215178899Y-74135778D01*
X215025363Y-74217845D01*
X214890788Y-74328288D01*
X214780345Y-74462863D01*
X214760000Y-74500926D01*
X214760000Y-73759500D01*
X213802000Y-73759500D01*
X213802000Y-75300002D01*
X213969001Y-75426908D01*
X214172197Y-75355202D01*
X214352408Y-75239514D01*
X214506587Y-75090891D01*
X214628809Y-74915045D01*
X214636467Y-74897477D01*
X214630678Y-74956249D01*
X214630678Y-75479191D01*
X213878120Y-76231750D01*
X213621444Y-76231750D01*
X213621444Y-76098061D01*
X213581670Y-75898102D01*
X213503649Y-75709744D01*
X213390381Y-75540226D01*
X213246218Y-75396063D01*
X213193193Y-75360633D01*
X213380999Y-75426908D01*
X213548000Y-75300002D01*
X213548000Y-73759500D01*
X213001608Y-73759500D01*
X212995520Y-73753412D01*
X213193767Y-73736716D01*
X213269589Y-73558116D01*
X213280536Y-73505500D01*
X213548000Y-73505500D01*
X213548000Y-71964998D01*
X213802000Y-71964998D01*
X213802000Y-73505500D01*
X214760000Y-73505500D01*
X214760000Y-72755500D01*
X214714376Y-72546267D01*
X214628809Y-72349955D01*
X214506587Y-72174109D01*
X214352408Y-72025486D01*
X214172197Y-71909798D01*
X213969001Y-71838092D01*
X213802000Y-71964998D01*
X213548000Y-71964998D01*
X213380999Y-71838092D01*
X213177803Y-71909798D01*
X212997592Y-72025486D01*
X212843413Y-72174109D01*
X212721191Y-72349955D01*
X212717272Y-72358945D01*
X212620616Y-72317911D01*
X212430656Y-72278390D01*
X212236636Y-72276687D01*
X212046011Y-72312868D01*
X211899349Y-72372115D01*
X211762314Y-72315353D01*
X211572014Y-72277500D01*
X211377986Y-72277500D01*
X211187686Y-72315353D01*
X211050000Y-72372384D01*
X210912314Y-72315353D01*
X210722014Y-72277500D01*
X210527986Y-72277500D01*
X210337686Y-72315353D01*
X210200000Y-72372384D01*
X210062314Y-72315353D01*
X209872014Y-72277500D01*
X209677986Y-72277500D01*
X209487686Y-72315353D01*
X209350000Y-72372384D01*
X209212314Y-72315353D01*
X209022014Y-72277500D01*
X208827986Y-72277500D01*
X208637686Y-72315353D01*
X208500000Y-72372384D01*
X208362314Y-72315353D01*
X208172014Y-72277500D01*
X207977986Y-72277500D01*
X207787686Y-72315353D01*
X207650000Y-72372384D01*
X207512314Y-72315353D01*
X207322014Y-72277500D01*
X207127986Y-72277500D01*
X206937686Y-72315353D01*
X206799458Y-72372609D01*
X206670616Y-72317911D01*
X206480656Y-72278390D01*
X206286636Y-72276687D01*
X206096011Y-72312868D01*
X205982611Y-72358678D01*
X205978809Y-72349955D01*
X205856587Y-72174109D01*
X205702408Y-72025486D01*
X205522197Y-71909798D01*
X205319001Y-71838092D01*
X205152000Y-71964998D01*
X205152000Y-73505500D01*
X205418537Y-73505500D01*
X205425368Y-73541489D01*
X205498043Y-73721393D01*
X205506233Y-73736716D01*
X205704480Y-73753412D01*
X205698392Y-73759500D01*
X205152000Y-73759500D01*
X205152000Y-75300002D01*
X205319001Y-75426908D01*
X205522197Y-75355202D01*
X205702408Y-75239514D01*
X205856587Y-75090891D01*
X205978809Y-74915045D01*
X206045225Y-74762670D01*
X206195395Y-74612500D01*
X206181253Y-74598358D01*
X206240000Y-74539610D01*
X206240000Y-74709514D01*
X206276101Y-74891004D01*
X205884088Y-75283017D01*
X205884105Y-75283222D01*
X205715226Y-75396063D01*
X205571063Y-75540226D01*
X205458838Y-75708183D01*
X205342005Y-75672742D01*
X205168751Y-75655678D01*
X204643749Y-75655678D01*
X204470495Y-75672742D01*
X204303899Y-75723278D01*
X204150363Y-75805345D01*
X204069113Y-75872026D01*
X204044935Y-75842565D01*
X203948244Y-75763213D01*
X203837930Y-75704248D01*
X203718232Y-75667938D01*
X203593750Y-75655678D01*
X203411422Y-75658148D01*
X203441250Y-75508189D01*
X203441250Y-75304311D01*
X203401476Y-75104352D01*
X203323455Y-74915994D01*
X203210187Y-74746476D01*
X203066024Y-74602313D01*
X202896506Y-74489045D01*
X202708148Y-74411024D01*
X202508189Y-74371250D01*
X202304311Y-74371250D01*
X202104352Y-74411024D01*
X201915994Y-74489045D01*
X201782084Y-74578521D01*
X201759449Y-74580750D01*
X201759447Y-74580750D01*
X201638174Y-74592694D01*
X201482566Y-74639897D01*
X201339157Y-74716551D01*
X201302694Y-74746476D01*
X201213459Y-74819709D01*
X201187606Y-74851211D01*
X200914389Y-75124428D01*
X200193750Y-75124428D01*
X200020496Y-75141492D01*
X199853900Y-75192028D01*
X199700364Y-75274095D01*
X199565788Y-75384538D01*
X199455345Y-75519114D01*
X199373278Y-75672650D01*
X199322742Y-75839246D01*
X199305678Y-76012500D01*
X199305678Y-76762500D01*
X199322742Y-76935754D01*
X199373278Y-77102350D01*
X199455345Y-77255886D01*
X199565788Y-77390462D01*
X199700364Y-77500905D01*
X199853900Y-77582972D01*
X200020496Y-77633508D01*
X200193750Y-77650572D01*
X201443750Y-77650572D01*
X201617004Y-77633508D01*
X201783600Y-77582972D01*
X201932088Y-77503603D01*
X201930678Y-77693750D01*
X201942938Y-77818232D01*
X201979248Y-77937930D01*
X202038213Y-78048244D01*
X202117565Y-78144935D01*
X202214256Y-78224287D01*
X202324570Y-78283252D01*
X202444268Y-78319562D01*
X202568750Y-78331822D01*
X202795500Y-78328750D01*
X202954250Y-78170000D01*
X202954250Y-77120750D01*
X202934250Y-77120750D01*
X202934250Y-76866750D01*
X202954250Y-76866750D01*
X202954250Y-76846750D01*
X203208250Y-76846750D01*
X203208250Y-76866750D01*
X203228250Y-76866750D01*
X203228250Y-77120750D01*
X203208250Y-77120750D01*
X203208250Y-78170000D01*
X203367000Y-78328750D01*
X203593750Y-78331822D01*
X203718232Y-78319562D01*
X203837930Y-78283252D01*
X203948244Y-78224287D01*
X204044935Y-78144935D01*
X204069113Y-78115474D01*
X204150363Y-78182155D01*
X204303899Y-78264222D01*
X204470495Y-78314758D01*
X204643749Y-78331822D01*
X205168751Y-78331822D01*
X205342005Y-78314758D01*
X205508601Y-78264222D01*
X205662137Y-78182155D01*
X205796712Y-78071712D01*
X205907155Y-77937137D01*
X205989222Y-77783601D01*
X205997670Y-77755750D01*
X206936577Y-77755750D01*
X206974000Y-77759436D01*
X207011423Y-77755750D01*
X207011426Y-77755750D01*
X207123378Y-77744724D01*
X207267015Y-77701152D01*
X207399392Y-77630395D01*
X207515422Y-77535172D01*
X207539284Y-77506096D01*
X207759151Y-77286230D01*
X207761024Y-77295648D01*
X207839045Y-77484006D01*
X207952313Y-77653524D01*
X207993080Y-77694291D01*
X207994250Y-77706173D01*
X207994250Y-77706176D01*
X208005276Y-77818128D01*
X208045325Y-77950148D01*
X208048849Y-77961765D01*
X208119605Y-78094142D01*
X208181437Y-78169484D01*
X208211928Y-78206637D01*
X208211928Y-78725001D01*
X208228992Y-78898255D01*
X208279528Y-79064851D01*
X208361595Y-79218387D01*
X208428276Y-79299637D01*
X208398815Y-79323815D01*
X208319463Y-79420506D01*
X208260498Y-79530820D01*
X208224188Y-79650518D01*
X208211928Y-79775000D01*
X208215000Y-80001750D01*
X208373750Y-80160500D01*
X209423000Y-80160500D01*
X209423000Y-80140500D01*
X209677000Y-80140500D01*
X209677000Y-80160500D01*
X210726250Y-80160500D01*
X210885000Y-80001750D01*
X210888072Y-79775000D01*
X210875812Y-79650518D01*
X210839502Y-79530820D01*
X210780537Y-79420506D01*
X210701185Y-79323815D01*
X210671724Y-79299637D01*
X210738405Y-79218387D01*
X210820472Y-79064851D01*
X210871008Y-78898255D01*
X210888072Y-78725001D01*
X210888072Y-78209760D01*
X214332130Y-78209760D01*
X214630678Y-78508308D01*
X214630678Y-79031251D01*
X214647742Y-79204505D01*
X214698278Y-79371101D01*
X214780345Y-79524637D01*
X214890788Y-79659212D01*
X215025363Y-79769655D01*
X215178899Y-79851722D01*
X215345495Y-79902258D01*
X215518749Y-79919322D01*
X216043751Y-79919322D01*
X216217005Y-79902258D01*
X216383601Y-79851722D01*
X216537137Y-79769655D01*
X216671712Y-79659212D01*
X216693750Y-79632359D01*
X216715788Y-79659212D01*
X216850363Y-79769655D01*
X217003899Y-79851722D01*
X217170495Y-79902258D01*
X217343749Y-79919322D01*
X217868751Y-79919322D01*
X218042005Y-79902258D01*
X218208601Y-79851722D01*
X218362137Y-79769655D01*
X218496712Y-79659212D01*
X218607155Y-79524637D01*
X218689222Y-79371101D01*
X218739758Y-79204505D01*
X218756822Y-79031251D01*
X218756822Y-78389559D01*
X218936621Y-78209760D01*
X219900500Y-78209760D01*
X219900501Y-86203118D01*
X219435810Y-86667810D01*
X219413750Y-86645750D01*
X218564500Y-86645750D01*
X218564500Y-86665750D01*
X218310500Y-86665750D01*
X218310500Y-86645750D01*
X218290500Y-86645750D01*
X218290500Y-86391750D01*
X218310500Y-86391750D01*
X218310500Y-85317500D01*
X218564500Y-85317500D01*
X218564500Y-86391750D01*
X219413750Y-86391750D01*
X219572500Y-86233000D01*
X219575572Y-85793750D01*
X219563312Y-85669268D01*
X219527002Y-85549570D01*
X219468037Y-85439256D01*
X219388685Y-85342565D01*
X219291994Y-85263213D01*
X219181680Y-85204248D01*
X219061982Y-85167938D01*
X218937500Y-85155678D01*
X218723250Y-85158750D01*
X218564500Y-85317500D01*
X218310500Y-85317500D01*
X218151750Y-85158750D01*
X217937500Y-85155678D01*
X217813018Y-85167938D01*
X217693320Y-85204248D01*
X217583006Y-85263213D01*
X217486315Y-85342565D01*
X217420842Y-85422344D01*
X217415462Y-85415788D01*
X217280886Y-85305345D01*
X217127350Y-85223278D01*
X216960754Y-85172742D01*
X216787500Y-85155678D01*
X216311283Y-85155678D01*
X216441437Y-85025524D01*
X216554705Y-84856006D01*
X216619035Y-84700701D01*
X216683563Y-84797274D01*
X216827726Y-84941437D01*
X216997244Y-85054705D01*
X217185602Y-85132726D01*
X217385561Y-85172500D01*
X217589439Y-85172500D01*
X217789398Y-85132726D01*
X217977756Y-85054705D01*
X218147274Y-84941437D01*
X218291437Y-84797274D01*
X218404705Y-84627756D01*
X218482726Y-84439398D01*
X218522500Y-84239439D01*
X218522500Y-84035561D01*
X218482726Y-83835602D01*
X218404705Y-83647244D01*
X218291437Y-83477726D01*
X218147274Y-83333563D01*
X217977756Y-83220295D01*
X217789398Y-83142274D01*
X217627504Y-83110072D01*
X216512398Y-81994966D01*
X216486541Y-81963459D01*
X216360842Y-81860301D01*
X216217434Y-81783647D01*
X216061826Y-81736444D01*
X215940553Y-81724500D01*
X215940550Y-81724500D01*
X215900000Y-81720506D01*
X215859450Y-81724500D01*
X212558753Y-81724500D01*
X212421506Y-81632795D01*
X212233148Y-81554774D01*
X212033189Y-81515000D01*
X211829311Y-81515000D01*
X211629352Y-81554774D01*
X211440994Y-81632795D01*
X211271476Y-81746063D01*
X211127313Y-81890226D01*
X211014045Y-82059744D01*
X210936024Y-82248102D01*
X210896250Y-82448061D01*
X210896250Y-82651939D01*
X210936024Y-82851898D01*
X211014045Y-83040256D01*
X211127313Y-83209774D01*
X211140880Y-83223341D01*
X211025000Y-83211928D01*
X210475000Y-83211928D01*
X210350518Y-83224188D01*
X210350000Y-83224345D01*
X210349482Y-83224188D01*
X210225000Y-83211928D01*
X209675000Y-83211928D01*
X209550518Y-83224188D01*
X209550000Y-83224345D01*
X209549482Y-83224188D01*
X209425000Y-83211928D01*
X208875000Y-83211928D01*
X208750518Y-83224188D01*
X208750000Y-83224345D01*
X208749482Y-83224188D01*
X208625000Y-83211928D01*
X208075000Y-83211928D01*
X207950518Y-83224188D01*
X207950000Y-83224345D01*
X207949482Y-83224188D01*
X207825000Y-83211928D01*
X207275000Y-83211928D01*
X207150518Y-83224188D01*
X207150000Y-83224345D01*
X207149482Y-83224188D01*
X207025000Y-83211928D01*
X206475000Y-83211928D01*
X206350518Y-83224188D01*
X206230820Y-83260498D01*
X206120506Y-83319463D01*
X206023815Y-83398815D01*
X205944463Y-83495506D01*
X205885498Y-83605820D01*
X205849188Y-83725518D01*
X205836928Y-83850000D01*
X205836928Y-85186928D01*
X204500000Y-85186928D01*
X204375518Y-85199188D01*
X204255820Y-85235498D01*
X204145506Y-85294463D01*
X204048815Y-85373815D01*
X203969463Y-85470506D01*
X203921616Y-85560020D01*
X203910100Y-85558886D01*
X203859774Y-85508560D01*
X203690256Y-85395292D01*
X203501898Y-85317271D01*
X203301939Y-85277497D01*
X203098061Y-85277497D01*
X202898102Y-85317271D01*
X202709744Y-85395292D01*
X202540226Y-85508560D01*
X202396063Y-85652723D01*
X202374500Y-85684994D01*
X202374500Y-84553920D01*
X202402351Y-84545472D01*
X202555887Y-84463405D01*
X202690462Y-84352962D01*
X202800905Y-84218387D01*
X202882972Y-84064851D01*
X202933508Y-83898255D01*
X202950572Y-83725001D01*
X202950572Y-83199999D01*
X202933508Y-83026745D01*
X202882972Y-82860149D01*
X202800905Y-82706613D01*
X202734224Y-82625363D01*
X202763685Y-82601185D01*
X202843037Y-82504494D01*
X202902002Y-82394180D01*
X202938312Y-82274482D01*
X202950572Y-82150000D01*
X202947500Y-81923250D01*
X202788750Y-81764500D01*
X201739500Y-81764500D01*
X201739500Y-81784500D01*
X201485500Y-81784500D01*
X201485500Y-81764500D01*
X201465500Y-81764500D01*
X201465500Y-81510500D01*
X201485500Y-81510500D01*
X201485500Y-80657556D01*
X201492727Y-80648750D01*
X201739500Y-80648750D01*
X201739500Y-81510500D01*
X202788750Y-81510500D01*
X202947500Y-81351750D01*
X202950572Y-81125000D01*
X202938312Y-81000518D01*
X202902002Y-80880820D01*
X202858803Y-80800000D01*
X208211928Y-80800000D01*
X208224188Y-80924482D01*
X208260498Y-81044180D01*
X208319463Y-81154494D01*
X208398815Y-81251185D01*
X208495506Y-81330537D01*
X208605820Y-81389502D01*
X208725518Y-81425812D01*
X208850000Y-81438072D01*
X209264250Y-81435000D01*
X209423000Y-81276250D01*
X209423000Y-80414500D01*
X209677000Y-80414500D01*
X209677000Y-81276250D01*
X209835750Y-81435000D01*
X210250000Y-81438072D01*
X210374482Y-81425812D01*
X210494180Y-81389502D01*
X210604494Y-81330537D01*
X210701185Y-81251185D01*
X210780537Y-81154494D01*
X210839502Y-81044180D01*
X210875812Y-80924482D01*
X210888072Y-80800000D01*
X210885000Y-80573250D01*
X210726250Y-80414500D01*
X209677000Y-80414500D01*
X209423000Y-80414500D01*
X208373750Y-80414500D01*
X208215000Y-80573250D01*
X208211928Y-80800000D01*
X202858803Y-80800000D01*
X202843037Y-80770506D01*
X202763685Y-80673815D01*
X202666994Y-80594463D01*
X202556680Y-80535498D01*
X202436982Y-80499188D01*
X202312500Y-80486928D01*
X201898250Y-80490000D01*
X201739500Y-80648750D01*
X201492727Y-80648750D01*
X201508449Y-80629593D01*
X201585103Y-80486184D01*
X201600591Y-80435124D01*
X201617004Y-80433508D01*
X201783600Y-80382972D01*
X201937136Y-80300905D01*
X202071712Y-80190462D01*
X202182155Y-80055886D01*
X202264222Y-79902350D01*
X202314758Y-79735754D01*
X202331822Y-79562500D01*
X202331822Y-78812500D01*
X202314758Y-78639246D01*
X202264222Y-78472650D01*
X202182155Y-78319114D01*
X202071712Y-78184538D01*
X201937136Y-78074095D01*
X201783600Y-77992028D01*
X201617004Y-77941492D01*
X201443750Y-77924428D01*
X200193750Y-77924428D01*
X200020496Y-77941492D01*
X199853900Y-77992028D01*
X199700364Y-78074095D01*
X199565788Y-78184538D01*
X199455345Y-78319114D01*
X199373278Y-78472650D01*
X199322742Y-78639246D01*
X199305678Y-78812500D01*
X199305678Y-79562500D01*
X199322742Y-79735754D01*
X199373278Y-79902350D01*
X199455345Y-80055886D01*
X199525060Y-80140835D01*
X199378494Y-80201545D01*
X199208976Y-80314813D01*
X199064813Y-80458976D01*
X198951545Y-80628494D01*
X198873524Y-80816852D01*
X198833750Y-81016811D01*
X198833750Y-81220689D01*
X198873524Y-81420648D01*
X198951545Y-81609006D01*
X199064813Y-81778524D01*
X199208976Y-81922687D01*
X199378494Y-82035955D01*
X199566852Y-82113976D01*
X199766811Y-82153750D01*
X199970689Y-82153750D01*
X200170648Y-82113976D01*
X200275504Y-82070543D01*
X200274428Y-82150000D01*
X200286688Y-82274482D01*
X200322998Y-82394180D01*
X200381963Y-82504494D01*
X200461315Y-82601185D01*
X200490776Y-82625363D01*
X200424095Y-82706613D01*
X200342028Y-82860149D01*
X200291492Y-83026745D01*
X200274428Y-83199999D01*
X200274428Y-83725001D01*
X200291492Y-83898255D01*
X200342028Y-84064851D01*
X200424095Y-84218387D01*
X200534538Y-84352962D01*
X200669113Y-84463405D01*
X200822649Y-84545472D01*
X200850500Y-84553921D01*
X200850500Y-85277497D01*
X200716811Y-85277497D01*
X200516852Y-85317271D01*
X200328494Y-85395292D01*
X200158976Y-85508560D01*
X200014813Y-85652723D01*
X199945305Y-85756750D01*
X199546881Y-85756750D01*
X197770750Y-83980620D01*
X197770750Y-73759500D01*
X203940000Y-73759500D01*
X203940000Y-74509500D01*
X203985624Y-74718733D01*
X204071191Y-74915045D01*
X204193413Y-75090891D01*
X204347592Y-75239514D01*
X204527803Y-75355202D01*
X204730999Y-75426908D01*
X204898000Y-75300002D01*
X204898000Y-73759500D01*
X203940000Y-73759500D01*
X197770750Y-73759500D01*
X197770750Y-72755500D01*
X203940000Y-72755500D01*
X203940000Y-73505500D01*
X204898000Y-73505500D01*
X204898000Y-71964998D01*
X204730999Y-71838092D01*
X204527803Y-71909798D01*
X204347592Y-72025486D01*
X204193413Y-72174109D01*
X204071191Y-72349955D01*
X203985624Y-72546267D01*
X203940000Y-72755500D01*
X197770750Y-72755500D01*
X197770750Y-70379500D01*
X203940000Y-70379500D01*
X203940000Y-70779500D01*
X203985624Y-70988733D01*
X204071191Y-71185045D01*
X204193413Y-71360891D01*
X204347592Y-71509514D01*
X204527803Y-71625202D01*
X204730999Y-71696908D01*
X204898000Y-71570002D01*
X204898000Y-70379500D01*
X205152000Y-70379500D01*
X205152000Y-71570002D01*
X205319001Y-71696908D01*
X205522197Y-71625202D01*
X205702408Y-71509514D01*
X205856587Y-71360891D01*
X205978809Y-71185045D01*
X206064376Y-70988733D01*
X206110000Y-70779500D01*
X206110000Y-70379500D01*
X212590000Y-70379500D01*
X212590000Y-70779500D01*
X212635624Y-70988733D01*
X212721191Y-71185045D01*
X212843413Y-71360891D01*
X212997592Y-71509514D01*
X213177803Y-71625202D01*
X213380999Y-71696908D01*
X213548000Y-71570002D01*
X213548000Y-70379500D01*
X213802000Y-70379500D01*
X213802000Y-71570002D01*
X213969001Y-71696908D01*
X214172197Y-71625202D01*
X214352408Y-71509514D01*
X214506587Y-71360891D01*
X214628809Y-71185045D01*
X214714376Y-70988733D01*
X214760000Y-70779500D01*
X214760000Y-70379500D01*
X213802000Y-70379500D01*
X213548000Y-70379500D01*
X212590000Y-70379500D01*
X206110000Y-70379500D01*
X205152000Y-70379500D01*
X204898000Y-70379500D01*
X203940000Y-70379500D01*
X197770750Y-70379500D01*
X197770750Y-68922500D01*
X204461285Y-68922500D01*
X204347592Y-68995486D01*
G37*
G04 #@! TD.AperFunction*
M02*
