M48
; DRILL file {KiCad (5.1.9)-1} date 05/06/21 17:45:16
; FORMAT={-:-/ absolute / inch / decimal}
; #@! TF.CreationDate,2021-05-06T17:45:16-07:00
; #@! TF.GenerationSoftware,Kicad,Pcbnew,(5.1.9)-1
; #@! TF.FileFunction,NonPlated,1,2,NPTH
FMAT,2
INCH
T1C0.0689
T2C0.0866
T3C0.1570
%
G90
G05
T1
X4.9435Y-3.0874
X4.9435Y-3.8374
X5.3435Y-3.0874
X5.3435Y-3.8374
X5.6935Y-3.0874
X5.6935Y-3.8374
X6.0935Y-3.0874
X6.0935Y-3.8374
X6.4435Y-3.0874
X6.4435Y-3.8374
X6.8435Y-3.0874
X6.8435Y-3.8374
X7.1935Y-3.0874
X7.1935Y-3.8374
X7.5935Y-3.0874
X7.5935Y-3.8374
T2
X5.5Y-2.75
X6.2812Y-4.1875
X7.0312Y-2.75
T3
X5.1435Y-3.0874
X5.1435Y-3.8374
X5.8935Y-3.0874
X5.8935Y-3.8374
X6.6435Y-3.0874
X6.6435Y-3.8374
X7.3935Y-3.0874
X7.3935Y-3.8374
T0
M30
